%TF.GenerationSoftware,KiCad,Pcbnew,9.0.1*%
%TF.CreationDate,2026-05-11T22:00:57+02:00*%
%TF.ProjectId,joy_bsa,6a6f795f-6273-4612-9e6b-696361645f70,rev?*%
%TF.SameCoordinates,Original*%
%TF.FileFunction,Legend,Top*%
%TF.FilePolarity,Positive*%
%FSLAX46Y46*%
G04 Gerber Fmt 4.6, Leading zero omitted, Abs format (unit mm)*
G04 Created by KiCad (PCBNEW 9.0.1) date 2026-05-11 22:00:57*
%MOMM*%
%LPD*%
G01*
G04 APERTURE LIST*
%ADD10C,0.106680*%
%ADD11C,0.000000*%
%ADD12C,0.100000*%
%ADD13C,0.127000*%
%ADD14C,0.504000*%
G04 APERTURE END LIST*
D10*
G36*
X127051458Y-66870710D02*
G01*
X126730669Y-66870710D01*
X126730669Y-66771425D01*
X126726133Y-66709075D01*
X126716748Y-66683644D01*
X126700660Y-66670366D01*
X126676521Y-66665619D01*
X126648521Y-66671955D01*
X126629773Y-66690239D01*
X126617495Y-66719677D01*
X126612554Y-66768128D01*
X126617835Y-66827261D01*
X126631385Y-66866900D01*
X126660119Y-66900899D01*
X126729057Y-66949332D01*
X126882026Y-67047361D01*
X126972449Y-67119701D01*
X127019438Y-67172301D01*
X127042771Y-67217495D01*
X127061332Y-67277395D01*
X127073845Y-67355543D01*
X127078496Y-67456013D01*
X127074096Y-67550023D01*
X127062683Y-67617415D01*
X127046475Y-67664255D01*
X127019574Y-67704329D01*
X126977658Y-67741735D01*
X126916929Y-67776582D01*
X126853478Y-67802335D01*
X126780772Y-67818470D01*
X126697110Y-67824136D01*
X126607633Y-67817746D01*
X126529181Y-67799455D01*
X126460000Y-67770061D01*
X126398772Y-67729414D01*
X126356725Y-67685309D01*
X126330380Y-67637290D01*
X126314682Y-67580121D01*
X126304023Y-67504980D01*
X126300045Y-67407873D01*
X126300045Y-67320239D01*
X126621566Y-67320239D01*
X126621566Y-67481806D01*
X126625698Y-67547193D01*
X126634682Y-67577793D01*
X126651129Y-67593134D01*
X126683115Y-67599115D01*
X126714802Y-67592281D01*
X126735579Y-67572884D01*
X126746144Y-67541474D01*
X126750380Y-67491697D01*
X126745507Y-67412321D01*
X126733782Y-67365061D01*
X126718360Y-67339217D01*
X126674209Y-67299455D01*
X126557599Y-67217877D01*
X126442679Y-67138688D01*
X126387826Y-67094119D01*
X126351398Y-67051902D01*
X126318510Y-66988826D01*
X126297952Y-66914350D01*
X126290226Y-66813777D01*
X126295488Y-66713408D01*
X126309179Y-66641221D01*
X126328768Y-66590734D01*
X126358570Y-66547792D01*
X126399979Y-66510727D01*
X126455090Y-66479286D01*
X126517979Y-66458295D01*
X126587634Y-66445264D01*
X126665090Y-66440745D01*
X126749207Y-66445654D01*
X126828342Y-66461261D01*
X126894801Y-66485002D01*
X126953161Y-66517734D01*
X126993518Y-66553984D01*
X127019438Y-66593885D01*
X127034380Y-66638351D01*
X127045431Y-66709364D01*
X127049846Y-66816635D01*
X127051458Y-66870710D01*
G37*
G36*
X127505090Y-66708044D02*
G01*
X127498496Y-66811652D01*
X127539843Y-66757212D01*
X127590380Y-66715518D01*
X127647453Y-66692519D01*
X127713405Y-66684597D01*
X127775618Y-66692443D01*
X127829913Y-66715368D01*
X127878323Y-66754139D01*
X127921793Y-66811652D01*
X127967955Y-66754995D01*
X128016168Y-66715518D01*
X128072478Y-66692352D01*
X128133478Y-66684597D01*
X128188358Y-66689701D01*
X128234241Y-66704134D01*
X128272916Y-66727315D01*
X128306206Y-66756568D01*
X128329334Y-66789243D01*
X128343478Y-66826013D01*
X128353797Y-66896675D01*
X128358206Y-67021652D01*
X128358206Y-67796000D01*
X128035806Y-67796000D01*
X128037491Y-67087231D01*
X128035806Y-66976150D01*
X128029284Y-66914161D01*
X128019716Y-66895246D01*
X128005192Y-66884406D01*
X127984148Y-66880528D01*
X127963567Y-66884337D01*
X127948703Y-66895152D01*
X127938206Y-66914161D01*
X127931761Y-66959339D01*
X127928387Y-67087231D01*
X127928387Y-67796000D01*
X127607599Y-67796000D01*
X127607599Y-67103644D01*
X127604776Y-66962322D01*
X127599392Y-66912549D01*
X127591228Y-66894822D01*
X127577155Y-66884392D01*
X127555062Y-66880528D01*
X127535326Y-66884570D01*
X127518206Y-66896942D01*
X127507145Y-66915493D01*
X127501793Y-66937095D01*
X127498496Y-67041289D01*
X127498496Y-67796000D01*
X127177780Y-67796000D01*
X127177780Y-66708044D01*
X127505090Y-66708044D01*
G37*
G36*
X128941345Y-66692334D02*
G01*
X129023828Y-66712984D01*
X129084853Y-66743801D01*
X129135585Y-66788322D01*
X129168946Y-66836735D01*
X129187362Y-66890127D01*
X129199066Y-67001248D01*
X129204581Y-67248505D01*
X129204581Y-67796000D01*
X128881448Y-67796000D01*
X128881448Y-67698400D01*
X128845418Y-67751210D01*
X128804291Y-67784862D01*
X128752053Y-67807059D01*
X128690279Y-67814757D01*
X128634938Y-67809185D01*
X128581944Y-67792475D01*
X128530324Y-67763979D01*
X128501182Y-67736823D01*
X128478279Y-67695651D01*
X128462518Y-67635819D01*
X128456465Y-67551122D01*
X128456465Y-67488400D01*
X128767362Y-67488400D01*
X128771278Y-67568600D01*
X128778866Y-67597503D01*
X128796237Y-67616417D01*
X128823196Y-67622929D01*
X128850667Y-67617290D01*
X128865034Y-67602413D01*
X128870437Y-67575991D01*
X128873241Y-67502322D01*
X128873241Y-67278400D01*
X128821624Y-67321090D01*
X128793553Y-67352670D01*
X128781284Y-67376000D01*
X128771373Y-67419719D01*
X128767362Y-67488400D01*
X128456465Y-67488400D01*
X128456465Y-67461875D01*
X128461955Y-67381742D01*
X128475755Y-67329273D01*
X128495006Y-67296498D01*
X128525867Y-67270582D01*
X128585399Y-67237056D01*
X128686981Y-67194136D01*
X128798399Y-67147708D01*
X128846851Y-67120936D01*
X128861737Y-67106502D01*
X128869519Y-67080033D01*
X128873241Y-67018062D01*
X128869338Y-66938942D01*
X128861297Y-66905954D01*
X128844914Y-66887078D01*
X128818213Y-66880528D01*
X128789086Y-66886513D01*
X128775568Y-66901851D01*
X128770035Y-66935560D01*
X128767362Y-67015057D01*
X128767362Y-67129070D01*
X128456465Y-67129070D01*
X128456465Y-67056530D01*
X128460470Y-66971613D01*
X128471143Y-66906963D01*
X128486800Y-66858620D01*
X128509799Y-66818506D01*
X128547178Y-66778786D01*
X128602498Y-66739039D01*
X128665403Y-66709817D01*
X128740791Y-66691234D01*
X128831329Y-66684597D01*
X128941345Y-66692334D01*
G37*
G36*
X129649127Y-66708044D02*
G01*
X129636011Y-66850193D01*
X129677681Y-66779963D01*
X129725038Y-66731198D01*
X129762027Y-66707505D01*
X129802085Y-66692052D01*
X129846011Y-66684597D01*
X129846011Y-67068473D01*
X129762200Y-67075853D01*
X129711482Y-67093972D01*
X129677860Y-67122695D01*
X129658946Y-67162995D01*
X129652398Y-67220030D01*
X129649127Y-67365228D01*
X129649127Y-67796000D01*
X129318520Y-67796000D01*
X129318520Y-66708044D01*
X129649127Y-66708044D01*
G37*
G36*
X130268210Y-66563037D02*
G01*
X130268210Y-66736181D01*
X130356796Y-66736181D01*
X130356796Y-66909691D01*
X130268210Y-66909691D01*
X130268210Y-67489646D01*
X130272381Y-67585525D01*
X130279274Y-67609374D01*
X130299277Y-67617399D01*
X130372404Y-67621976D01*
X130372404Y-67796000D01*
X130237875Y-67796000D01*
X130132774Y-67793016D01*
X130076308Y-67786181D01*
X130032184Y-67771812D01*
X129990945Y-67742071D01*
X129960981Y-67707755D01*
X129945003Y-67665281D01*
X129939475Y-67604278D01*
X129936796Y-67459457D01*
X129936796Y-66909691D01*
X129864623Y-66909691D01*
X129864623Y-66736181D01*
X129936796Y-66736181D01*
X129936796Y-66563037D01*
X130268210Y-66563037D01*
G37*
G36*
X131263695Y-66468882D02*
G01*
X131066004Y-67067741D01*
X131282599Y-67796000D01*
X130926566Y-67796000D01*
X130785443Y-67226669D01*
X130785443Y-67796000D01*
X130440914Y-67796000D01*
X130440914Y-66468882D01*
X130785443Y-66468882D01*
X130785443Y-66984722D01*
X130939682Y-66468882D01*
X131263695Y-66468882D01*
G37*
G36*
X131663251Y-66708044D02*
G01*
X131650136Y-66850193D01*
X131691806Y-66779963D01*
X131739162Y-66731198D01*
X131776151Y-66707505D01*
X131816210Y-66692052D01*
X131860136Y-66684597D01*
X131860136Y-67068473D01*
X131776325Y-67075853D01*
X131725607Y-67093972D01*
X131691984Y-67122695D01*
X131673070Y-67162995D01*
X131666523Y-67220030D01*
X131663251Y-67365228D01*
X131663251Y-67796000D01*
X131332644Y-67796000D01*
X131332644Y-66708044D01*
X131663251Y-66708044D01*
G37*
G36*
X132402169Y-66692334D02*
G01*
X132484651Y-66712984D01*
X132545676Y-66743801D01*
X132596409Y-66788322D01*
X132629770Y-66836735D01*
X132648185Y-66890127D01*
X132659889Y-67001248D01*
X132665404Y-67248505D01*
X132665404Y-67796000D01*
X132342271Y-67796000D01*
X132342271Y-67698400D01*
X132306242Y-67751210D01*
X132265115Y-67784862D01*
X132212877Y-67807059D01*
X132151102Y-67814757D01*
X132095762Y-67809185D01*
X132042768Y-67792475D01*
X131991147Y-67763979D01*
X131962005Y-67736823D01*
X131939102Y-67695651D01*
X131923342Y-67635819D01*
X131917288Y-67551122D01*
X131917288Y-67488400D01*
X132228185Y-67488400D01*
X132232101Y-67568600D01*
X132239689Y-67597503D01*
X132257061Y-67616417D01*
X132284019Y-67622929D01*
X132311491Y-67617290D01*
X132325858Y-67602413D01*
X132331260Y-67575991D01*
X132334064Y-67502322D01*
X132334064Y-67278400D01*
X132282447Y-67321090D01*
X132254377Y-67352670D01*
X132242107Y-67376000D01*
X132232197Y-67419719D01*
X132228185Y-67488400D01*
X131917288Y-67488400D01*
X131917288Y-67461875D01*
X131922778Y-67381742D01*
X131936579Y-67329273D01*
X131955830Y-67296498D01*
X131986691Y-67270582D01*
X132046223Y-67237056D01*
X132147805Y-67194136D01*
X132259222Y-67147708D01*
X132307675Y-67120936D01*
X132322561Y-67106502D01*
X132330342Y-67080033D01*
X132334064Y-67018062D01*
X132330162Y-66938942D01*
X132322121Y-66905954D01*
X132305738Y-66887078D01*
X132279036Y-66880528D01*
X132249909Y-66886513D01*
X132236392Y-66901851D01*
X132230859Y-66935560D01*
X132228185Y-67015057D01*
X132228185Y-67129070D01*
X131917288Y-67129070D01*
X131917288Y-67056530D01*
X131921294Y-66971613D01*
X131931966Y-66906963D01*
X131947623Y-66858620D01*
X131970622Y-66818506D01*
X132008002Y-66778786D01*
X132063321Y-66739039D01*
X132126227Y-66709817D01*
X132201614Y-66691234D01*
X132292152Y-66684597D01*
X132402169Y-66692334D01*
G37*
G36*
X133202641Y-66468882D02*
G01*
X133202641Y-66637702D01*
X133111389Y-66640600D01*
X133081228Y-66645982D01*
X133068690Y-66662278D01*
X133063203Y-66700570D01*
X133063203Y-66736181D01*
X133202641Y-66736181D01*
X133202641Y-66909691D01*
X133123872Y-66909691D01*
X133123872Y-67796000D01*
X132792459Y-67796000D01*
X132792459Y-66909691D01*
X132723583Y-66909691D01*
X132723583Y-66736181D01*
X132792459Y-66736181D01*
X132794653Y-66633264D01*
X132799054Y-66592639D01*
X132811889Y-66556831D01*
X132835910Y-66526621D01*
X132867107Y-66504112D01*
X132917170Y-66484562D01*
X132976228Y-66473560D01*
X133079616Y-66468882D01*
X133202641Y-66468882D01*
G37*
G36*
X133614141Y-66563037D02*
G01*
X133614141Y-66736181D01*
X133702728Y-66736181D01*
X133702728Y-66909691D01*
X133614141Y-66909691D01*
X133614141Y-67489646D01*
X133618312Y-67585525D01*
X133625205Y-67609374D01*
X133645208Y-67617399D01*
X133718335Y-67621976D01*
X133718335Y-67796000D01*
X133583806Y-67796000D01*
X133478706Y-67793016D01*
X133422240Y-67786181D01*
X133378116Y-67771812D01*
X133336877Y-67742071D01*
X133306912Y-67707755D01*
X133290935Y-67665281D01*
X133285407Y-67604278D01*
X133282728Y-67459457D01*
X133282728Y-66909691D01*
X133210554Y-66909691D01*
X133210554Y-66736181D01*
X133282728Y-66736181D01*
X133282728Y-66563037D01*
X133614141Y-66563037D01*
G37*
G36*
X133998531Y-67524011D02*
G01*
X133998531Y-67796000D01*
X133748304Y-67796000D01*
X133748304Y-67524011D01*
X133998531Y-67524011D01*
G37*
G36*
X134820212Y-67119251D02*
G01*
X134507704Y-67119251D01*
X134507704Y-66992929D01*
X134504268Y-66931447D01*
X134497006Y-66904342D01*
X134480919Y-66886545D01*
X134456852Y-66880528D01*
X134432172Y-66885922D01*
X134418237Y-66900678D01*
X134411656Y-66927222D01*
X134408419Y-66992929D01*
X134408419Y-67507231D01*
X134412772Y-67561252D01*
X134423220Y-67592594D01*
X134442583Y-67615704D01*
X134467477Y-67622929D01*
X134496615Y-67615230D01*
X134514298Y-67592594D01*
X134521009Y-67556235D01*
X134524117Y-67478508D01*
X134524117Y-67347277D01*
X134820212Y-67347277D01*
X134817597Y-67467956D01*
X134811200Y-67543428D01*
X134793317Y-67606946D01*
X134756245Y-67675832D01*
X134720467Y-67718281D01*
X134680133Y-67752650D01*
X134634832Y-67779586D01*
X134582305Y-67798516D01*
X134521272Y-67810513D01*
X134450258Y-67814757D01*
X134358211Y-67808510D01*
X134285665Y-67791478D01*
X134228827Y-67765518D01*
X134177702Y-67728459D01*
X134139325Y-67683910D01*
X134112323Y-67630916D01*
X134094203Y-67571660D01*
X134081767Y-67491574D01*
X134077079Y-67385525D01*
X134077079Y-67076900D01*
X134080901Y-66986191D01*
X134091042Y-66917608D01*
X134105802Y-66866826D01*
X134129657Y-66823859D01*
X134168384Y-66781876D01*
X134225530Y-66740431D01*
X134287987Y-66710235D01*
X134361069Y-66691290D01*
X134447034Y-66684597D01*
X134531844Y-66691285D01*
X134604401Y-66710274D01*
X134666852Y-66740651D01*
X134722796Y-66781770D01*
X134763090Y-66828290D01*
X134789877Y-66880895D01*
X134805453Y-66938536D01*
X134816172Y-67016379D01*
X134820212Y-67119251D01*
G37*
G36*
X135249518Y-66468882D02*
G01*
X135249518Y-66766516D01*
X135297724Y-66729403D01*
X135343820Y-66705699D01*
X135395126Y-66689906D01*
X135449626Y-66684597D01*
X135504438Y-66689881D01*
X135553234Y-66705241D01*
X135597271Y-66730612D01*
X135634246Y-66762286D01*
X135658146Y-66795498D01*
X135671130Y-66830923D01*
X135680892Y-66908104D01*
X135685052Y-67043854D01*
X135685052Y-67796000D01*
X135353712Y-67796000D01*
X135353712Y-67029859D01*
X135351086Y-66945577D01*
X135345505Y-66907566D01*
X135330734Y-66887668D01*
X135302055Y-66880528D01*
X135277170Y-66887613D01*
X135261022Y-66909251D01*
X135253265Y-66942115D01*
X135249518Y-67019967D01*
X135249518Y-67796000D01*
X134918911Y-67796000D01*
X134918911Y-66468882D01*
X135249518Y-66468882D01*
G37*
G36*
X126722545Y-77377423D02*
G01*
X126758653Y-77390406D01*
X126792084Y-77413284D01*
X126820446Y-77442967D01*
X126835736Y-77388696D01*
X127040851Y-77388696D01*
X127040851Y-77947230D01*
X127039358Y-78053474D01*
X127036454Y-78092604D01*
X127025627Y-78125132D01*
X126999281Y-78163092D01*
X126975909Y-78185290D01*
X126946878Y-78204071D01*
X126911256Y-78219366D01*
X126872459Y-78229793D01*
X126825520Y-78236596D01*
X126769057Y-78239052D01*
X126700088Y-78234583D01*
X126643987Y-78222240D01*
X126598478Y-78203197D01*
X126571555Y-78182374D01*
X126551397Y-78153272D01*
X126537898Y-78113813D01*
X126532288Y-78060852D01*
X126746636Y-78060852D01*
X126752208Y-78089976D01*
X126763972Y-78104546D01*
X126782198Y-78109408D01*
X126804138Y-78105305D01*
X126816099Y-78094607D01*
X126822099Y-78074872D01*
X126824842Y-78033155D01*
X126823768Y-77977712D01*
X126792037Y-78002309D01*
X126764124Y-78017133D01*
X126730590Y-78026203D01*
X126697983Y-78029150D01*
X126658429Y-78026253D01*
X126626057Y-78018207D01*
X126599553Y-78005653D01*
X126576969Y-77987677D01*
X126559628Y-77966650D01*
X126547041Y-77942199D01*
X126536558Y-77899492D01*
X126532288Y-77831215D01*
X126532288Y-77580769D01*
X126753182Y-77580769D01*
X126753182Y-77825256D01*
X126755296Y-77868711D01*
X126759727Y-77887586D01*
X126767929Y-77898392D01*
X126784347Y-77902339D01*
X126803466Y-77897579D01*
X126813314Y-77884314D01*
X126818052Y-77862739D01*
X126820446Y-77806107D01*
X126820446Y-77580769D01*
X126818489Y-77535838D01*
X126814438Y-77516826D01*
X126805218Y-77507221D01*
X126788743Y-77503685D01*
X126772598Y-77507691D01*
X126761632Y-77519561D01*
X126755838Y-77539175D01*
X126753182Y-77580769D01*
X126532288Y-77580769D01*
X126532288Y-77568263D01*
X126537482Y-77499677D01*
X126550964Y-77451689D01*
X126570586Y-77418982D01*
X126590985Y-77399495D01*
X126615943Y-77385287D01*
X126646420Y-77376289D01*
X126683768Y-77373064D01*
X126722545Y-77377423D01*
G37*
G36*
X127347034Y-77388696D02*
G01*
X127347034Y-78114000D01*
X127120083Y-78114000D01*
X127120083Y-77388696D01*
X127347034Y-77388696D01*
G37*
G36*
X127311472Y-77241759D02*
G01*
X127311472Y-77323043D01*
X127152372Y-77323043D01*
X127152372Y-77241759D01*
X127311472Y-77241759D01*
G37*
G36*
X127659420Y-77292025D02*
G01*
X127659420Y-77407454D01*
X127718478Y-77407454D01*
X127718478Y-77523127D01*
X127659420Y-77523127D01*
X127659420Y-77909764D01*
X127662201Y-77973683D01*
X127666796Y-77989582D01*
X127680132Y-77994933D01*
X127728883Y-77997984D01*
X127728883Y-78114000D01*
X127639197Y-78114000D01*
X127569130Y-78112011D01*
X127531486Y-78107454D01*
X127502070Y-78097875D01*
X127474577Y-78078047D01*
X127454601Y-78055170D01*
X127443949Y-78026854D01*
X127440264Y-77986185D01*
X127438478Y-77889638D01*
X127438478Y-77523127D01*
X127390362Y-77523127D01*
X127390362Y-77407454D01*
X127438478Y-77407454D01*
X127438478Y-77292025D01*
X127659420Y-77292025D01*
G37*
G36*
X127988415Y-77229254D02*
G01*
X127988415Y-77427677D01*
X128020553Y-77402935D01*
X128051284Y-77387133D01*
X128085487Y-77376604D01*
X128121821Y-77373064D01*
X128158362Y-77376587D01*
X128190893Y-77386827D01*
X128220251Y-77403741D01*
X128244901Y-77424857D01*
X128260834Y-77446999D01*
X128269490Y-77470615D01*
X128275998Y-77522069D01*
X128278771Y-77612569D01*
X128278771Y-78114000D01*
X128057878Y-78114000D01*
X128057878Y-77603239D01*
X128056127Y-77547051D01*
X128052407Y-77521711D01*
X128042559Y-77508445D01*
X128023440Y-77503685D01*
X128006850Y-77508409D01*
X127996085Y-77522834D01*
X127990913Y-77544743D01*
X127988415Y-77596644D01*
X127988415Y-78114000D01*
X127768011Y-78114000D01*
X127768011Y-77229254D01*
X127988415Y-77229254D01*
G37*
G36*
X128860069Y-77388696D02*
G01*
X128860069Y-78114000D01*
X128635268Y-78114000D01*
X128639665Y-78053281D01*
X128614234Y-78084749D01*
X128582219Y-78107649D01*
X128545735Y-78121723D01*
X128505136Y-78126505D01*
X128457691Y-78121633D01*
X128422533Y-78108480D01*
X128391896Y-78085588D01*
X128374417Y-78062660D01*
X128361726Y-78032780D01*
X128355317Y-78001013D01*
X128352378Y-77965648D01*
X128350921Y-77877133D01*
X128350921Y-77388696D01*
X128571325Y-77388696D01*
X128571325Y-77882213D01*
X128573256Y-77958303D01*
X128576796Y-77982792D01*
X128585576Y-77994273D01*
X128604689Y-77998619D01*
X128626020Y-77993894D01*
X128635268Y-77981669D01*
X128638029Y-77959475D01*
X128639665Y-77876742D01*
X128639665Y-77388696D01*
X128860069Y-77388696D01*
G37*
G36*
X129159218Y-77437496D02*
G01*
X129190369Y-77407933D01*
X129221011Y-77389331D01*
X129257590Y-77377054D01*
X129293747Y-77373064D01*
X129337543Y-77377000D01*
X129371953Y-77387817D01*
X129401558Y-77405344D01*
X129423342Y-77428312D01*
X129436619Y-77452413D01*
X129444689Y-77478675D01*
X129448499Y-77582625D01*
X129448499Y-77909812D01*
X129445104Y-77984585D01*
X129437020Y-78028563D01*
X129427471Y-78053353D01*
X129411393Y-78076010D01*
X129387780Y-78096951D01*
X129358923Y-78113350D01*
X129327809Y-78123165D01*
X129293747Y-78126505D01*
X129256179Y-78122286D01*
X129222086Y-78109847D01*
X129189175Y-78088285D01*
X129159218Y-78059289D01*
X129146078Y-78114000D01*
X128938813Y-78114000D01*
X128938813Y-77594446D01*
X129159218Y-77594446D01*
X129159218Y-77906735D01*
X129161846Y-77962151D01*
X129166887Y-77981669D01*
X129177068Y-77994264D01*
X129194193Y-77998619D01*
X129211232Y-77994307D01*
X129220963Y-77981962D01*
X129225344Y-77959345D01*
X129227557Y-77900189D01*
X129227557Y-77594446D01*
X129225059Y-77542545D01*
X129219888Y-77520636D01*
X129209971Y-77508119D01*
X129192044Y-77503685D01*
X129174483Y-77507568D01*
X129165764Y-77517900D01*
X129161423Y-77538847D01*
X129159218Y-77594446D01*
X128938813Y-77594446D01*
X128938813Y-77229254D01*
X129159218Y-77229254D01*
X129159218Y-77437496D01*
G37*
G36*
X129668757Y-77932674D02*
G01*
X129668757Y-78114000D01*
X129501939Y-78114000D01*
X129501939Y-77932674D01*
X129668757Y-77932674D01*
G37*
G36*
X130216545Y-77662834D02*
G01*
X130008206Y-77662834D01*
X130008206Y-77578619D01*
X130005916Y-77537631D01*
X130001074Y-77519561D01*
X129990349Y-77507697D01*
X129974305Y-77503685D01*
X129957852Y-77507281D01*
X129948562Y-77517119D01*
X129944174Y-77534814D01*
X129942016Y-77578619D01*
X129942016Y-77921487D01*
X129944918Y-77957501D01*
X129951884Y-77978396D01*
X129964792Y-77993802D01*
X129981388Y-77998619D01*
X130000813Y-77993487D01*
X130012602Y-77978396D01*
X130017076Y-77954157D01*
X130019148Y-77902339D01*
X130019148Y-77814851D01*
X130216545Y-77814851D01*
X130214802Y-77895304D01*
X130210537Y-77945618D01*
X130198615Y-77987964D01*
X130173900Y-78033888D01*
X130150048Y-78062187D01*
X130123159Y-78085100D01*
X130092958Y-78103057D01*
X130057940Y-78115677D01*
X130017251Y-78123675D01*
X129969909Y-78126505D01*
X129908545Y-78122340D01*
X129860181Y-78110985D01*
X129822288Y-78093678D01*
X129788205Y-78068973D01*
X129762620Y-78039273D01*
X129744619Y-78003944D01*
X129732539Y-77964440D01*
X129724248Y-77911049D01*
X129721123Y-77840350D01*
X129721123Y-77634600D01*
X129723671Y-77574127D01*
X129730432Y-77528405D01*
X129740272Y-77494551D01*
X129756175Y-77465906D01*
X129781993Y-77437917D01*
X129820090Y-77410287D01*
X129861728Y-77390157D01*
X129910450Y-77377527D01*
X129967759Y-77373064D01*
X130024300Y-77377523D01*
X130072671Y-77390183D01*
X130114305Y-77410434D01*
X130151601Y-77437847D01*
X130178463Y-77468860D01*
X130196322Y-77503930D01*
X130206706Y-77542357D01*
X130213851Y-77594253D01*
X130216545Y-77662834D01*
G37*
G36*
X130568867Y-77375696D02*
G01*
X130611131Y-77383281D01*
X130649295Y-77395486D01*
X130683141Y-77412332D01*
X130710565Y-77431871D01*
X130732435Y-77454055D01*
X130755677Y-77488714D01*
X130771758Y-77526840D01*
X130778719Y-77569987D01*
X130781625Y-77642269D01*
X130781625Y-77819003D01*
X130778685Y-77910447D01*
X130771758Y-77962911D01*
X130756925Y-78006710D01*
X130730237Y-78047712D01*
X130706731Y-78072504D01*
X130679196Y-78092305D01*
X130647096Y-78107356D01*
X130592297Y-78121578D01*
X130530642Y-78126505D01*
X130462529Y-78122015D01*
X130406517Y-78109554D01*
X130374722Y-78096946D01*
X130348845Y-78080963D01*
X130328018Y-78061683D01*
X130303931Y-78025949D01*
X130287815Y-77981522D01*
X130278870Y-77927357D01*
X130275261Y-77843623D01*
X130275261Y-77658145D01*
X130278198Y-77591184D01*
X130278616Y-77588438D01*
X130496154Y-77588438D01*
X130496154Y-77916016D01*
X130498307Y-77963389D01*
X130502700Y-77982743D01*
X130512235Y-77994527D01*
X130528443Y-77998619D01*
X130546063Y-77994642D01*
X130555261Y-77983867D01*
X130559307Y-77966122D01*
X130561270Y-77923685D01*
X130561270Y-77588438D01*
X130559315Y-77538967D01*
X130555261Y-77517900D01*
X130545891Y-77507444D01*
X130529518Y-77503685D01*
X130512221Y-77507501D01*
X130502700Y-77517900D01*
X130498317Y-77538151D01*
X130496154Y-77588438D01*
X130278616Y-77588438D01*
X130286070Y-77539410D01*
X130297683Y-77500022D01*
X130315886Y-77464871D01*
X130341722Y-77434393D01*
X130376133Y-77408089D01*
X130415382Y-77389373D01*
X130463320Y-77377380D01*
X130521898Y-77373064D01*
X130568867Y-77375696D01*
G37*
G36*
X131072665Y-77388696D02*
G01*
X131068269Y-77457768D01*
X131095833Y-77421474D01*
X131129525Y-77393678D01*
X131167574Y-77378346D01*
X131211542Y-77373064D01*
X131253017Y-77378295D01*
X131289214Y-77393578D01*
X131321487Y-77419426D01*
X131350467Y-77457768D01*
X131381242Y-77419997D01*
X131413384Y-77393678D01*
X131450923Y-77378234D01*
X131491591Y-77373064D01*
X131528177Y-77376467D01*
X131558766Y-77386089D01*
X131584549Y-77401543D01*
X131606743Y-77421045D01*
X131622161Y-77442829D01*
X131631591Y-77467342D01*
X131638470Y-77514450D01*
X131641409Y-77597768D01*
X131641409Y-78114000D01*
X131426475Y-78114000D01*
X131427599Y-77641487D01*
X131426475Y-77567433D01*
X131422128Y-77526107D01*
X131415749Y-77513497D01*
X131406066Y-77506270D01*
X131392037Y-77503685D01*
X131378316Y-77506225D01*
X131368407Y-77513435D01*
X131361409Y-77526107D01*
X131357112Y-77556226D01*
X131354863Y-77641487D01*
X131354863Y-78114000D01*
X131141004Y-78114000D01*
X131141004Y-77652429D01*
X131139123Y-77558215D01*
X131135533Y-77525032D01*
X131130090Y-77513215D01*
X131120709Y-77506261D01*
X131105980Y-77503685D01*
X131092823Y-77506380D01*
X131081409Y-77514628D01*
X131074035Y-77526995D01*
X131070467Y-77541397D01*
X131068269Y-77610859D01*
X131068269Y-78114000D01*
X130854459Y-78114000D01*
X130854459Y-77388696D01*
X131072665Y-77388696D01*
G37*
G36*
X132114898Y-77210496D02*
G01*
X131851311Y-78129631D01*
X131684494Y-78129631D01*
X131949204Y-77210496D01*
X132114898Y-77210496D01*
G37*
G36*
X132611639Y-77620043D02*
G01*
X132415854Y-77620043D01*
X132415854Y-77580427D01*
X132413897Y-77535183D01*
X132409846Y-77516044D01*
X132401270Y-77506691D01*
X132380879Y-77502855D01*
X132364819Y-77506016D01*
X132354061Y-77514872D01*
X132347023Y-77528991D01*
X132344242Y-77552046D01*
X132345746Y-77581859D01*
X132349420Y-77600454D01*
X132358136Y-77616269D01*
X132377606Y-77635137D01*
X132410040Y-77657098D01*
X132471639Y-77689799D01*
X132536019Y-77724983D01*
X132575801Y-77754142D01*
X132597962Y-77778312D01*
X132614029Y-77807989D01*
X132624647Y-77847357D01*
X132628590Y-77899115D01*
X132625652Y-77955983D01*
X132617791Y-77999570D01*
X132606168Y-78032471D01*
X132588006Y-78058876D01*
X132562561Y-78081967D01*
X132528499Y-78101885D01*
X132492310Y-78115074D01*
X132449512Y-78123501D01*
X132398904Y-78126505D01*
X132343252Y-78123169D01*
X132295916Y-78113786D01*
X132255631Y-78099052D01*
X132217577Y-78079159D01*
X132190544Y-78055604D01*
X132172491Y-78028270D01*
X132160934Y-77995563D01*
X132153041Y-77951371D01*
X132150069Y-77892764D01*
X132150069Y-77857642D01*
X132346392Y-77857642D01*
X132346392Y-77903755D01*
X132348908Y-77957775D01*
X132354061Y-77980008D01*
X132363990Y-77992561D01*
X132381953Y-77997007D01*
X132402678Y-77993708D01*
X132415854Y-77984942D01*
X132421895Y-77968651D01*
X132424598Y-77935214D01*
X132420554Y-77889463D01*
X132412044Y-77870685D01*
X132388300Y-77853166D01*
X132284598Y-77793064D01*
X132236685Y-77763403D01*
X132205561Y-77740064D01*
X132180992Y-77715641D01*
X132165945Y-77693560D01*
X132154472Y-77664027D01*
X132147185Y-77629353D01*
X132144598Y-77588584D01*
X132147661Y-77530464D01*
X132155627Y-77488722D01*
X132167020Y-77459575D01*
X132185791Y-77434426D01*
X132211433Y-77413149D01*
X132245226Y-77395632D01*
X132305682Y-77378849D01*
X132373210Y-77373064D01*
X132441850Y-77377960D01*
X132495184Y-77391236D01*
X132541239Y-77414089D01*
X132573391Y-77440720D01*
X132596542Y-77472389D01*
X132606168Y-77497384D01*
X132610048Y-77527981D01*
X132611639Y-77577154D01*
X132611639Y-77620043D01*
G37*
G36*
X132906245Y-77388696D02*
G01*
X132901849Y-77457768D01*
X132929413Y-77421474D01*
X132963105Y-77393678D01*
X133001154Y-77378346D01*
X133045122Y-77373064D01*
X133086597Y-77378295D01*
X133122793Y-77393578D01*
X133155067Y-77419426D01*
X133184047Y-77457768D01*
X133214822Y-77419997D01*
X133246964Y-77393678D01*
X133284503Y-77378234D01*
X133325170Y-77373064D01*
X133361757Y-77376467D01*
X133392346Y-77386089D01*
X133418129Y-77401543D01*
X133440323Y-77421045D01*
X133455741Y-77442829D01*
X133465170Y-77467342D01*
X133472050Y-77514450D01*
X133474989Y-77597768D01*
X133474989Y-78114000D01*
X133260055Y-78114000D01*
X133261179Y-77641487D01*
X133260055Y-77567433D01*
X133255708Y-77526107D01*
X133249329Y-77513497D01*
X133239646Y-77506270D01*
X133225617Y-77503685D01*
X133211896Y-77506225D01*
X133201987Y-77513435D01*
X133194989Y-77526107D01*
X133190692Y-77556226D01*
X133188443Y-77641487D01*
X133188443Y-78114000D01*
X132974584Y-78114000D01*
X132974584Y-77652429D01*
X132972703Y-77558215D01*
X132969113Y-77525032D01*
X132963670Y-77513215D01*
X132954288Y-77506261D01*
X132939560Y-77503685D01*
X132926402Y-77506380D01*
X132914989Y-77514628D01*
X132907615Y-77526995D01*
X132904047Y-77541397D01*
X132901849Y-77610859D01*
X132901849Y-78114000D01*
X132688039Y-78114000D01*
X132688039Y-77388696D01*
X132906245Y-77388696D01*
G37*
G36*
X133771304Y-77388696D02*
G01*
X133762561Y-77483462D01*
X133790341Y-77436642D01*
X133821912Y-77404132D01*
X133846571Y-77388337D01*
X133873277Y-77378035D01*
X133902561Y-77373064D01*
X133902561Y-77628982D01*
X133846687Y-77633902D01*
X133812875Y-77645981D01*
X133790460Y-77665130D01*
X133777850Y-77691997D01*
X133773485Y-77730020D01*
X133771304Y-77826819D01*
X133771304Y-78114000D01*
X133550900Y-78114000D01*
X133550900Y-77388696D01*
X133771304Y-77388696D01*
G37*
G36*
X134184026Y-77292025D02*
G01*
X134184026Y-77407454D01*
X134243084Y-77407454D01*
X134243084Y-77523127D01*
X134184026Y-77523127D01*
X134184026Y-77909764D01*
X134186807Y-77973683D01*
X134191402Y-77989582D01*
X134204737Y-77994933D01*
X134253489Y-77997984D01*
X134253489Y-78114000D01*
X134163803Y-78114000D01*
X134093736Y-78112011D01*
X134056092Y-78107454D01*
X134026676Y-78097875D01*
X133999183Y-78078047D01*
X133979207Y-78055170D01*
X133968555Y-78026854D01*
X133964870Y-77986185D01*
X133963084Y-77889638D01*
X133963084Y-77523127D01*
X133914968Y-77523127D01*
X133914968Y-77407454D01*
X133963084Y-77407454D01*
X133963084Y-77292025D01*
X134184026Y-77292025D01*
G37*
G36*
X134768401Y-77388696D02*
G01*
X134678715Y-77677293D01*
X134795219Y-78114000D01*
X134582484Y-78114000D01*
X134513021Y-77797900D01*
X134513021Y-78114000D01*
X134292616Y-78114000D01*
X134292616Y-77229254D01*
X134513021Y-77229254D01*
X134513021Y-77601041D01*
X134582484Y-77388696D01*
X134768401Y-77388696D01*
G37*
G36*
X135048401Y-77388696D02*
G01*
X135039658Y-77483462D01*
X135067438Y-77436642D01*
X135099009Y-77404132D01*
X135123668Y-77388337D01*
X135150374Y-77378035D01*
X135179658Y-77373064D01*
X135179658Y-77628982D01*
X135123784Y-77633902D01*
X135089972Y-77645981D01*
X135067557Y-77665130D01*
X135054947Y-77691997D01*
X135050582Y-77730020D01*
X135048401Y-77826819D01*
X135048401Y-78114000D01*
X134827997Y-78114000D01*
X134827997Y-77388696D01*
X135048401Y-77388696D01*
G37*
G36*
X135510362Y-77229254D02*
G01*
X135510362Y-77341801D01*
X135449528Y-77343733D01*
X135429420Y-77347321D01*
X135421062Y-77358185D01*
X135417404Y-77383713D01*
X135417404Y-77407454D01*
X135510362Y-77407454D01*
X135510362Y-77523127D01*
X135457850Y-77523127D01*
X135457850Y-78114000D01*
X135236908Y-78114000D01*
X135236908Y-77523127D01*
X135190990Y-77523127D01*
X135190990Y-77407454D01*
X135236908Y-77407454D01*
X135238371Y-77338842D01*
X135241304Y-77311759D01*
X135249861Y-77287887D01*
X135265875Y-77267747D01*
X135286673Y-77252741D01*
X135320048Y-77239708D01*
X135359421Y-77232373D01*
X135428346Y-77229254D01*
X135510362Y-77229254D01*
G37*
G36*
X135784696Y-77292025D02*
G01*
X135784696Y-77407454D01*
X135843754Y-77407454D01*
X135843754Y-77523127D01*
X135784696Y-77523127D01*
X135784696Y-77909764D01*
X135787477Y-77973683D01*
X135792072Y-77989582D01*
X135805407Y-77994933D01*
X135854159Y-77997984D01*
X135854159Y-78114000D01*
X135764473Y-78114000D01*
X135694406Y-78112011D01*
X135656762Y-78107454D01*
X135627346Y-78097875D01*
X135599853Y-78078047D01*
X135579877Y-78055170D01*
X135569225Y-78026854D01*
X135565540Y-77986185D01*
X135563754Y-77889638D01*
X135563754Y-77523127D01*
X135515638Y-77523127D01*
X135515638Y-77407454D01*
X135563754Y-77407454D01*
X135563754Y-77292025D01*
X135784696Y-77292025D01*
G37*
G36*
X127067602Y-74448136D02*
G01*
X127067602Y-75926782D01*
X127062107Y-76352742D01*
X127045371Y-76438003D01*
X127000680Y-76526154D01*
X126937186Y-76587877D01*
X126848883Y-76628614D01*
X126739231Y-76650882D01*
X126563119Y-76660000D01*
X126274668Y-76660000D01*
X126274668Y-76273119D01*
X126351238Y-76275806D01*
X126408807Y-76268199D01*
X126445516Y-76248450D01*
X126475356Y-76215287D01*
X126487892Y-76173468D01*
X126493387Y-76005551D01*
X126493387Y-74448136D01*
X127067602Y-74448136D01*
G37*
G36*
X127990904Y-74814241D02*
G01*
X128096564Y-74833203D01*
X128191974Y-74863715D01*
X128276590Y-74905832D01*
X128345151Y-74954677D01*
X128399825Y-75010139D01*
X128457930Y-75096786D01*
X128498133Y-75192100D01*
X128515536Y-75299968D01*
X128522801Y-75480673D01*
X128522801Y-75922508D01*
X128515450Y-76151118D01*
X128498133Y-76282278D01*
X128461049Y-76391776D01*
X128394330Y-76494281D01*
X128335566Y-76556260D01*
X128266727Y-76605762D01*
X128186479Y-76643391D01*
X128049481Y-76678947D01*
X127895341Y-76691263D01*
X127725060Y-76680039D01*
X127585031Y-76648886D01*
X127505542Y-76617367D01*
X127440850Y-76577408D01*
X127388782Y-76529207D01*
X127328565Y-76439872D01*
X127288276Y-76328806D01*
X127265912Y-76193394D01*
X127256891Y-75984057D01*
X127256891Y-75520362D01*
X127264232Y-75352961D01*
X127265276Y-75346095D01*
X127809124Y-75346095D01*
X127809124Y-76165041D01*
X127814506Y-76283473D01*
X127825488Y-76331859D01*
X127849326Y-76361318D01*
X127889846Y-76371549D01*
X127933894Y-76361606D01*
X127956891Y-76334668D01*
X127967004Y-76290305D01*
X127971912Y-76184214D01*
X127971912Y-75346095D01*
X127967026Y-75222418D01*
X127956891Y-75169752D01*
X127933465Y-75143610D01*
X127892533Y-75134214D01*
X127849291Y-75143753D01*
X127825488Y-75169752D01*
X127814530Y-75220379D01*
X127809124Y-75346095D01*
X127265276Y-75346095D01*
X127283913Y-75223527D01*
X127312944Y-75125055D01*
X127358453Y-75037177D01*
X127423042Y-74960984D01*
X127509071Y-74895223D01*
X127607193Y-74848432D01*
X127727038Y-74818451D01*
X127873482Y-74807662D01*
X127990904Y-74814241D01*
G37*
G36*
X129861496Y-74846741D02*
G01*
X129704326Y-76160889D01*
X129642777Y-76588070D01*
X129603380Y-76696529D01*
X129554483Y-76776137D01*
X129487608Y-76837380D01*
X129392550Y-76882383D01*
X129342146Y-76896040D01*
X129261270Y-76908272D01*
X129060380Y-76917920D01*
X128724057Y-76917920D01*
X128724057Y-76626294D01*
X128836016Y-76621989D01*
X128889410Y-76612616D01*
X128915767Y-76593034D01*
X128925069Y-76556563D01*
X128892219Y-76366297D01*
X128590090Y-74846741D01*
X129090422Y-74846741D01*
X129272260Y-76069420D01*
X129359822Y-74846741D01*
X129861496Y-74846741D01*
G37*
G36*
X129844521Y-76871025D02*
G01*
X131423551Y-76871025D01*
X131423551Y-77011709D01*
X129844521Y-77011709D01*
X129844521Y-76871025D01*
G37*
G36*
X132280378Y-74454360D02*
G01*
X132414684Y-74470492D01*
X132507868Y-74493199D01*
X132592682Y-74529819D01*
X132666936Y-74585890D01*
X132732083Y-74663803D01*
X132774258Y-74754098D01*
X132803951Y-74888019D01*
X132815491Y-75080237D01*
X132807054Y-75210607D01*
X132785938Y-75295444D01*
X132756751Y-75347927D01*
X132707746Y-75392626D01*
X132630721Y-75432755D01*
X132516050Y-75466629D01*
X132646353Y-75507280D01*
X132733350Y-75557058D01*
X132788136Y-75614152D01*
X132823661Y-75685455D01*
X132848347Y-75789276D01*
X132857868Y-75936308D01*
X132857868Y-76139762D01*
X132850741Y-76294961D01*
X132832566Y-76402027D01*
X132807309Y-76472909D01*
X132764579Y-76540176D01*
X132710827Y-76588524D01*
X132644521Y-76620432D01*
X132563767Y-76639240D01*
X132419731Y-76653934D01*
X132185101Y-76660000D01*
X131519295Y-76660000D01*
X131519295Y-76282644D01*
X132093510Y-76282644D01*
X132203876Y-76266590D01*
X132249459Y-76242955D01*
X132272587Y-76194987D01*
X132283653Y-76074794D01*
X132283653Y-75867065D01*
X132273707Y-75743012D01*
X132253611Y-75696217D01*
X132210023Y-75676276D01*
X132093510Y-75663367D01*
X132093510Y-76282644D01*
X131519295Y-76282644D01*
X131519295Y-75318740D01*
X132093510Y-75318740D01*
X132152372Y-75315931D01*
X132206861Y-75309998D01*
X132240084Y-75295138D01*
X132258984Y-75273311D01*
X132275102Y-75212816D01*
X132283653Y-75033831D01*
X132277649Y-74935260D01*
X132264480Y-74888018D01*
X132239570Y-74852546D01*
X132213921Y-74834284D01*
X132179490Y-74826931D01*
X132093510Y-74823293D01*
X132093510Y-75318740D01*
X131519295Y-75318740D01*
X131519295Y-74448136D01*
X132093510Y-74448136D01*
X132280378Y-74454360D01*
G37*
G36*
X134283879Y-75117850D02*
G01*
X133749232Y-75117850D01*
X133749232Y-74952376D01*
X133741671Y-74848458D01*
X133726029Y-74806074D01*
X133699217Y-74783944D01*
X133658984Y-74776032D01*
X133612317Y-74786592D01*
X133581071Y-74817065D01*
X133560608Y-74866128D01*
X133552372Y-74946880D01*
X133561174Y-75045435D01*
X133583757Y-75111500D01*
X133631649Y-75168165D01*
X133746545Y-75248886D01*
X134001493Y-75412269D01*
X134152197Y-75532835D01*
X134230512Y-75620502D01*
X134269401Y-75695825D01*
X134300336Y-75795659D01*
X134321191Y-75925906D01*
X134328942Y-76093356D01*
X134321609Y-76250039D01*
X134302587Y-76362358D01*
X134275575Y-76440425D01*
X134230740Y-76507215D01*
X134160880Y-76569558D01*
X134059665Y-76627637D01*
X133953913Y-76670558D01*
X133832737Y-76697451D01*
X133693300Y-76706894D01*
X133544171Y-76696244D01*
X133413418Y-76665759D01*
X133298115Y-76616769D01*
X133196070Y-76549024D01*
X133125992Y-76475516D01*
X133082083Y-76395484D01*
X133055920Y-76300203D01*
X133038154Y-76174967D01*
X133031524Y-76013122D01*
X133031524Y-75867065D01*
X133567393Y-75867065D01*
X133567393Y-76136343D01*
X133574280Y-76245323D01*
X133589253Y-76296322D01*
X133616665Y-76321890D01*
X133669975Y-76331859D01*
X133722786Y-76320468D01*
X133757414Y-76288140D01*
X133775022Y-76235790D01*
X133782083Y-76152829D01*
X133773961Y-76020536D01*
X133754420Y-75941769D01*
X133728715Y-75898695D01*
X133655131Y-75832426D01*
X133460781Y-75696461D01*
X133269247Y-75564481D01*
X133177826Y-75490198D01*
X133117112Y-75419837D01*
X133062299Y-75314710D01*
X133028036Y-75190583D01*
X133015160Y-75022962D01*
X133023929Y-74855681D01*
X133046747Y-74735368D01*
X133079396Y-74651224D01*
X133129066Y-74579654D01*
X133198081Y-74517879D01*
X133289933Y-74465478D01*
X133394749Y-74430492D01*
X133510839Y-74408774D01*
X133639933Y-74401242D01*
X133780129Y-74409424D01*
X133912020Y-74435436D01*
X134022784Y-74475003D01*
X134120051Y-74529557D01*
X134187312Y-74589973D01*
X134230512Y-74656475D01*
X134255416Y-74730586D01*
X134273835Y-74848941D01*
X134281193Y-75027725D01*
X134283879Y-75117850D01*
G37*
G36*
X135832868Y-76660000D02*
G01*
X135244975Y-76660000D01*
X135216277Y-76261395D01*
X135009891Y-76261395D01*
X134975697Y-76660000D01*
X134379623Y-76660000D01*
X134484530Y-75870607D01*
X135003053Y-75870607D01*
X135199912Y-75870607D01*
X135160956Y-75508639D01*
X135112351Y-74941385D01*
X135038590Y-75511448D01*
X135003053Y-75870607D01*
X134484530Y-75870607D01*
X134673569Y-74448136D01*
X135504727Y-74448136D01*
X135832868Y-76660000D01*
G37*
G36*
X137509122Y-78501813D02*
G01*
X137509122Y-78639388D01*
X137242236Y-78639388D01*
X137242236Y-78786755D01*
X137269460Y-78760414D01*
X137299548Y-78742035D01*
X137333116Y-78730921D01*
X137371117Y-78727092D01*
X137415992Y-78730593D01*
X137452623Y-78740329D01*
X137482560Y-78755573D01*
X137506972Y-78776198D01*
X137524251Y-78802485D01*
X137538358Y-78840759D01*
X137548171Y-78894770D01*
X137551923Y-78968994D01*
X137551923Y-79092334D01*
X137549418Y-79176034D01*
X137543372Y-79226899D01*
X137530616Y-79266597D01*
X137505921Y-79306482D01*
X137485534Y-79327652D01*
X137459309Y-79346352D01*
X137426242Y-79362515D01*
X137368984Y-79377058D01*
X137298986Y-79382292D01*
X137245090Y-79378810D01*
X137196494Y-79368741D01*
X137152430Y-79352436D01*
X137114571Y-79331097D01*
X137084949Y-79302775D01*
X137062577Y-79266691D01*
X137048884Y-79228036D01*
X137039109Y-79170686D01*
X137035301Y-79088703D01*
X137035301Y-79041842D01*
X137250835Y-79041842D01*
X137250835Y-79095343D01*
X137252794Y-79173629D01*
X137257236Y-79214622D01*
X137264172Y-79235251D01*
X137277153Y-79246794D01*
X137297887Y-79250975D01*
X137313284Y-79248042D01*
X137324112Y-79239749D01*
X137331786Y-79229312D01*
X137335338Y-79217823D01*
X137336389Y-79116218D01*
X137336389Y-78943963D01*
X137333219Y-78899909D01*
X137326214Y-78878711D01*
X137313762Y-78865761D01*
X137292537Y-78861084D01*
X137278591Y-78863286D01*
X137267410Y-78869635D01*
X137259242Y-78878099D01*
X137254035Y-78888360D01*
X137250835Y-78937562D01*
X137037450Y-78937562D01*
X137046001Y-78501813D01*
X137509122Y-78501813D01*
G37*
G36*
X138015043Y-78483470D02*
G01*
X137757282Y-79382292D01*
X137594151Y-79382292D01*
X137853011Y-78483470D01*
X138015043Y-78483470D01*
G37*
G36*
X138524882Y-79220259D02*
G01*
X138524882Y-79367006D01*
X138050536Y-79367006D01*
X138050536Y-79244191D01*
X138225657Y-78951845D01*
X138301371Y-78816372D01*
X138325531Y-78759001D01*
X138337557Y-78717407D01*
X138340924Y-78687873D01*
X138337471Y-78656112D01*
X138328599Y-78635423D01*
X138314771Y-78622408D01*
X138292772Y-78617748D01*
X138270557Y-78622576D01*
X138255321Y-78636474D01*
X138247198Y-78661886D01*
X138243570Y-78712952D01*
X138243570Y-78796405D01*
X138050536Y-78796405D01*
X138050536Y-78764782D01*
X138052912Y-78692125D01*
X138058561Y-78649563D01*
X138070335Y-78608928D01*
X138094388Y-78567066D01*
X138116312Y-78541470D01*
X138141848Y-78520685D01*
X138171391Y-78504393D01*
X138203424Y-78493144D01*
X138240733Y-78486001D01*
X138284222Y-78483470D01*
X138346127Y-78487607D01*
X138396527Y-78499042D01*
X138441530Y-78519053D01*
X138478880Y-78547241D01*
X138507600Y-78581415D01*
X138527940Y-78619309D01*
X138540362Y-78661684D01*
X138544658Y-78709608D01*
X138540751Y-78758901D01*
X138528581Y-78811351D01*
X138507207Y-78867676D01*
X138465266Y-78945922D01*
X138399202Y-79053354D01*
X138288521Y-79220259D01*
X138524882Y-79220259D01*
G37*
G36*
X138928637Y-78487022D02*
G01*
X138978233Y-78496958D01*
X139019865Y-78512466D01*
X139056327Y-78535781D01*
X139083548Y-78563409D01*
X139102792Y-78595727D01*
X139116237Y-78633431D01*
X139124845Y-78678135D01*
X139127918Y-78731104D01*
X138912384Y-78731104D01*
X138911333Y-78654292D01*
X138907239Y-78640310D01*
X138897958Y-78627971D01*
X138885326Y-78619740D01*
X138866383Y-78616698D01*
X138851162Y-78619563D01*
X138839107Y-78627971D01*
X138830899Y-78638358D01*
X138826830Y-78654196D01*
X138824680Y-78718875D01*
X138824680Y-78856832D01*
X138845671Y-78826267D01*
X138873882Y-78804239D01*
X138907518Y-78792649D01*
X138953036Y-78788332D01*
X138991284Y-78791921D01*
X139025880Y-78802412D01*
X139057602Y-78819811D01*
X139085212Y-78843069D01*
X139104346Y-78868344D01*
X139116167Y-78896051D01*
X139124635Y-78946437D01*
X139127918Y-79017575D01*
X139127918Y-79086363D01*
X139125657Y-79173675D01*
X139120418Y-79221788D01*
X139108871Y-79261939D01*
X139084592Y-79302326D01*
X139062127Y-79324969D01*
X139034553Y-79344702D01*
X139001139Y-79361512D01*
X138945551Y-79376818D01*
X138878134Y-79382292D01*
X138820205Y-79379270D01*
X138773024Y-79370956D01*
X138734827Y-79358264D01*
X138700419Y-79338995D01*
X138672141Y-79316056D01*
X138649273Y-79289333D01*
X138632017Y-79259039D01*
X138620497Y-79227287D01*
X138614497Y-79193652D01*
X138610798Y-79128735D01*
X138609147Y-79001286D01*
X138609147Y-79001190D01*
X138824680Y-79001190D01*
X138824680Y-79157921D01*
X138828320Y-79210342D01*
X138835906Y-79232249D01*
X138847488Y-79246098D01*
X138867481Y-79250975D01*
X138882065Y-79247609D01*
X138896859Y-79236548D01*
X138904102Y-79226162D01*
X138909880Y-79204135D01*
X138912384Y-79163271D01*
X138912384Y-79001190D01*
X138908930Y-78958624D01*
X138901159Y-78937562D01*
X138888234Y-78925295D01*
X138868532Y-78920986D01*
X138848730Y-78925071D01*
X138835906Y-78936511D01*
X138828153Y-78957695D01*
X138824680Y-79001190D01*
X138609147Y-79001190D01*
X138609147Y-78882102D01*
X138610805Y-78744409D01*
X138614497Y-78675310D01*
X138619834Y-78641766D01*
X138631770Y-78608971D01*
X138650849Y-78576428D01*
X138674425Y-78548366D01*
X138703822Y-78525199D01*
X138739890Y-78506733D01*
X138778877Y-78494056D01*
X138821906Y-78486193D01*
X138869583Y-78483470D01*
X138928637Y-78487022D01*
G37*
D11*
%TO.C,G\u002A\u002A\u002A*%
G36*
X132644002Y-69626271D02*
G01*
X132673417Y-69649243D01*
X132713384Y-69692632D01*
X132755597Y-69747357D01*
X132758411Y-69751362D01*
X132784463Y-69788186D01*
X132828503Y-69849842D01*
X132887994Y-69932800D01*
X132960398Y-70033533D01*
X133043176Y-70148511D01*
X133133791Y-70274203D01*
X133229705Y-70407083D01*
X133288548Y-70488524D01*
X133384654Y-70621943D01*
X133475324Y-70748678D01*
X133558282Y-70865486D01*
X133631250Y-70969122D01*
X133691953Y-71056342D01*
X133738113Y-71123901D01*
X133767454Y-71168555D01*
X133776526Y-71183956D01*
X133796186Y-71227289D01*
X133799548Y-71257376D01*
X133786644Y-71291939D01*
X133776752Y-71311339D01*
X133760777Y-71336792D01*
X133726429Y-71387717D01*
X133675789Y-71461172D01*
X133610940Y-71554217D01*
X133533962Y-71663908D01*
X133446937Y-71787306D01*
X133351947Y-71921468D01*
X133251073Y-72063453D01*
X133146397Y-72210320D01*
X133040001Y-72359126D01*
X132933966Y-72506930D01*
X132830374Y-72650792D01*
X132758419Y-72750348D01*
X132698915Y-72823635D01*
X132646371Y-72866665D01*
X132595781Y-72882084D01*
X132542142Y-72872537D01*
X132533644Y-72869166D01*
X132482869Y-72837178D01*
X132458661Y-72793448D01*
X132461236Y-72735617D01*
X132490812Y-72661325D01*
X132547606Y-72568214D01*
X132563484Y-72545382D01*
X132630059Y-72451512D01*
X132706905Y-72343453D01*
X132791201Y-72225145D01*
X132880128Y-72100526D01*
X132970866Y-71973537D01*
X133060595Y-71848116D01*
X133146496Y-71728202D01*
X133225749Y-71617735D01*
X133295534Y-71520655D01*
X133353031Y-71440899D01*
X133395420Y-71382409D01*
X133417332Y-71352536D01*
X133492797Y-71251106D01*
X133143984Y-70764784D01*
X133052028Y-70636610D01*
X132958208Y-70505897D01*
X132866632Y-70378364D01*
X132781408Y-70259731D01*
X132706642Y-70155715D01*
X132646444Y-70072035D01*
X132626514Y-70044359D01*
X132555445Y-69943443D01*
X132504848Y-69864908D01*
X132472970Y-69804080D01*
X132458062Y-69756286D01*
X132458371Y-69716855D01*
X132472147Y-69681112D01*
X132483609Y-69663061D01*
X132527392Y-69628081D01*
X132586233Y-69614915D01*
X132644002Y-69626271D01*
G37*
G36*
X129930665Y-69620670D02*
G01*
X129982408Y-69643353D01*
X129992269Y-69651891D01*
X130020301Y-69699332D01*
X130029674Y-69747478D01*
X130027547Y-69768912D01*
X130018636Y-69795831D01*
X130000833Y-69831617D01*
X129972027Y-69879651D01*
X129930111Y-69943316D01*
X129872975Y-70025992D01*
X129798509Y-70131060D01*
X129736223Y-70217962D01*
X129592154Y-70418483D01*
X129467377Y-70592379D01*
X129360663Y-70741393D01*
X129270784Y-70867267D01*
X129196513Y-70971743D01*
X129136622Y-71056564D01*
X129089881Y-71123471D01*
X129055064Y-71174208D01*
X129030942Y-71210516D01*
X129016288Y-71234137D01*
X129009872Y-71246813D01*
X129009338Y-71249209D01*
X129019207Y-71266764D01*
X129047275Y-71309367D01*
X129091229Y-71373693D01*
X129148759Y-71456416D01*
X129217553Y-71554211D01*
X129295300Y-71663751D01*
X129371163Y-71769833D01*
X129503404Y-71954107D01*
X129616723Y-72112082D01*
X129712579Y-72245924D01*
X129792430Y-72357800D01*
X129857736Y-72449876D01*
X129909956Y-72524321D01*
X129950549Y-72583300D01*
X129980973Y-72628980D01*
X130002689Y-72663529D01*
X130017153Y-72689112D01*
X130025827Y-72707897D01*
X130030168Y-72722051D01*
X130031635Y-72733740D01*
X130031688Y-72745131D01*
X130031640Y-72750735D01*
X130017316Y-72812118D01*
X129980009Y-72858129D01*
X129928210Y-72883011D01*
X129870414Y-72881005D01*
X129850997Y-72873221D01*
X129836559Y-72862042D01*
X129814011Y-72838404D01*
X129782195Y-72800753D01*
X129739954Y-72747534D01*
X129686130Y-72677193D01*
X129619564Y-72588178D01*
X129539100Y-72478933D01*
X129443578Y-72347905D01*
X129331841Y-72193539D01*
X129202731Y-72014283D01*
X129055090Y-71808581D01*
X128989992Y-71717718D01*
X128894654Y-71583471D01*
X128819332Y-71474782D01*
X128762644Y-71389498D01*
X128723212Y-71325465D01*
X128699655Y-71280528D01*
X128690596Y-71252534D01*
X128690408Y-71249944D01*
X128690888Y-71230443D01*
X128694920Y-71210040D01*
X128704671Y-71185313D01*
X128722309Y-71152840D01*
X128750002Y-71109197D01*
X128789917Y-71050962D01*
X128844221Y-70974712D01*
X128915081Y-70877024D01*
X129000936Y-70759570D01*
X129076319Y-70656396D01*
X129166022Y-70533275D01*
X129263899Y-70398664D01*
X129363804Y-70261021D01*
X129459591Y-70128802D01*
X129511464Y-70057067D01*
X129587191Y-69952776D01*
X129657330Y-69857158D01*
X129718977Y-69774097D01*
X129769225Y-69707477D01*
X129805170Y-69661182D01*
X129823905Y-69639097D01*
X129824680Y-69638402D01*
X129872680Y-69618584D01*
X129930665Y-69620670D01*
G37*
G36*
X132015152Y-68751500D02*
G01*
X132088181Y-68767924D01*
X132130141Y-68797878D01*
X132142763Y-68839624D01*
X132137906Y-68864860D01*
X132124147Y-68919235D01*
X132102704Y-68998372D01*
X132074795Y-69097893D01*
X132041639Y-69213421D01*
X132004453Y-69340579D01*
X131986255Y-69402022D01*
X131947188Y-69533668D01*
X131910981Y-69656169D01*
X131878950Y-69765042D01*
X131852406Y-69855809D01*
X131832662Y-69923987D01*
X131821031Y-69965096D01*
X131818805Y-69973526D01*
X131816381Y-69999738D01*
X131827032Y-70023852D01*
X131856100Y-70053000D01*
X131908926Y-70094313D01*
X131909668Y-70094868D01*
X131972814Y-70143071D01*
X132048700Y-70202381D01*
X132123060Y-70261625D01*
X132138387Y-70274017D01*
X132199308Y-70324955D01*
X132237191Y-70361772D01*
X132257245Y-70391026D01*
X132264681Y-70419276D01*
X132265299Y-70433788D01*
X132262494Y-70474222D01*
X132251751Y-70506562D01*
X132229579Y-70531751D01*
X132192485Y-70550730D01*
X132136978Y-70564444D01*
X132059566Y-70573834D01*
X131956757Y-70579846D01*
X131825059Y-70583420D01*
X131705134Y-70585071D01*
X131602241Y-70586774D01*
X131509163Y-70589473D01*
X131432553Y-70592884D01*
X131379063Y-70596726D01*
X131357565Y-70599868D01*
X131348093Y-70605478D01*
X131349108Y-70616056D01*
X131363254Y-70633875D01*
X131393173Y-70661207D01*
X131441510Y-70700325D01*
X131510908Y-70753502D01*
X131604010Y-70823012D01*
X131696559Y-70891334D01*
X131806262Y-70973165D01*
X131902829Y-71047313D01*
X131983000Y-71111141D01*
X132043516Y-71162010D01*
X132081120Y-71197279D01*
X132092295Y-71211827D01*
X132100311Y-71261419D01*
X132096879Y-71295982D01*
X132088767Y-71321858D01*
X132076333Y-71342596D01*
X132055835Y-71358895D01*
X132023529Y-71371451D01*
X131975675Y-71380964D01*
X131908529Y-71388129D01*
X131818350Y-71393645D01*
X131701396Y-71398209D01*
X131553924Y-71402519D01*
X131520555Y-71403409D01*
X131032974Y-71416298D01*
X131390935Y-71677491D01*
X131491625Y-71751308D01*
X131585263Y-71820611D01*
X131667365Y-71882027D01*
X131733444Y-71932185D01*
X131779015Y-71967713D01*
X131797036Y-71982730D01*
X131835285Y-72038216D01*
X131845124Y-72102058D01*
X131825154Y-72163037D01*
X131820382Y-72170051D01*
X131811069Y-72179998D01*
X131796582Y-72188064D01*
X131772990Y-72194632D01*
X131736362Y-72200084D01*
X131682766Y-72204801D01*
X131608273Y-72209167D01*
X131508950Y-72213564D01*
X131380867Y-72218373D01*
X131290851Y-72221536D01*
X130786112Y-72239041D01*
X130895100Y-72313806D01*
X130966647Y-72366714D01*
X131011386Y-72410620D01*
X131034176Y-72451453D01*
X131039937Y-72490561D01*
X131035060Y-72515056D01*
X131021194Y-72568984D01*
X130999489Y-72648268D01*
X130971095Y-72748830D01*
X130937160Y-72866594D01*
X130898833Y-72997482D01*
X130863211Y-73117521D01*
X130812235Y-73287574D01*
X130769585Y-73426796D01*
X130733744Y-73537956D01*
X130703191Y-73623820D01*
X130676407Y-73687156D01*
X130651873Y-73730732D01*
X130628069Y-73757314D01*
X130603476Y-73769670D01*
X130576576Y-73770567D01*
X130545848Y-73762772D01*
X130515276Y-73751257D01*
X130467349Y-73721831D01*
X130447047Y-73677958D01*
X130445030Y-73651108D01*
X130448765Y-73625638D01*
X130460399Y-73575768D01*
X130480304Y-73500177D01*
X130508853Y-73397546D01*
X130546418Y-73266556D01*
X130593371Y-73105888D01*
X130650085Y-72914223D01*
X130705092Y-72729800D01*
X130725934Y-72656120D01*
X130741019Y-72594884D01*
X130748582Y-72553784D01*
X130748374Y-72540968D01*
X130731467Y-72526803D01*
X130690471Y-72496926D01*
X130630500Y-72454937D01*
X130556670Y-72404436D01*
X130503851Y-72368872D01*
X130403506Y-72300154D01*
X130330094Y-72245411D01*
X130280285Y-72201016D01*
X130250750Y-72163340D01*
X130238160Y-72128756D01*
X130239184Y-72093634D01*
X130241508Y-72083007D01*
X130249730Y-72056434D01*
X130262098Y-72035124D01*
X130282334Y-72018381D01*
X130314157Y-72005511D01*
X130361287Y-71995819D01*
X130427444Y-71988611D01*
X130516348Y-71983192D01*
X130631719Y-71978869D01*
X130777278Y-71974945D01*
X130826635Y-71973760D01*
X130953945Y-71970396D01*
X131069037Y-71966681D01*
X131167504Y-71962812D01*
X131244938Y-71958986D01*
X131296931Y-71955398D01*
X131319075Y-71952246D01*
X131319554Y-71951768D01*
X131306104Y-71937410D01*
X131270924Y-71908762D01*
X131221052Y-71871491D01*
X131210147Y-71863653D01*
X131037338Y-71740070D01*
X130891959Y-71635717D01*
X130772793Y-71549706D01*
X130678619Y-71481144D01*
X130608219Y-71429142D01*
X130560374Y-71392809D01*
X130533864Y-71371253D01*
X130527719Y-71365080D01*
X130515644Y-71322050D01*
X130522883Y-71267991D01*
X130545826Y-71218337D01*
X130567298Y-71195846D01*
X130583935Y-71186384D01*
X130607406Y-71178679D01*
X130641808Y-71172380D01*
X130691236Y-71167139D01*
X130759786Y-71162606D01*
X130851553Y-71158432D01*
X130970635Y-71154267D01*
X131100899Y-71150344D01*
X131590738Y-71136216D01*
X131345971Y-70957248D01*
X131205584Y-70854515D01*
X131090864Y-70770171D01*
X130999186Y-70701985D01*
X130927925Y-70647725D01*
X130874455Y-70605159D01*
X130836152Y-70572056D01*
X130810391Y-70546182D01*
X130794545Y-70525308D01*
X130785990Y-70507200D01*
X130782101Y-70489626D01*
X130780773Y-70476750D01*
X130784618Y-70420311D01*
X130810676Y-70380087D01*
X130811783Y-70379045D01*
X130829926Y-70365822D01*
X130855631Y-70355908D01*
X130894610Y-70348473D01*
X130952577Y-70342688D01*
X131035244Y-70337722D01*
X131123463Y-70333761D01*
X131237289Y-70329534D01*
X131356886Y-70325927D01*
X131469736Y-70323267D01*
X131563325Y-70321881D01*
X131582597Y-70321770D01*
X131766402Y-70321199D01*
X131711668Y-70273573D01*
X131662258Y-70230752D01*
X131607154Y-70183231D01*
X131593508Y-70171505D01*
X131546490Y-70120572D01*
X131530159Y-70073225D01*
X131530082Y-70069661D01*
X131535031Y-70041346D01*
X131548959Y-69984720D01*
X131570490Y-69904395D01*
X131598246Y-69804980D01*
X131630849Y-69691088D01*
X131666922Y-69567327D01*
X131705088Y-69438308D01*
X131743970Y-69308642D01*
X131782189Y-69182939D01*
X131818370Y-69065810D01*
X131851134Y-68961865D01*
X131879104Y-68875715D01*
X131900902Y-68811970D01*
X131915152Y-68775240D01*
X131918715Y-68768777D01*
X131949575Y-68751712D01*
X132004576Y-68750427D01*
X132015152Y-68751500D01*
G37*
D12*
%TO.C,REF\u002A\u002A*%
X103593400Y-68654500D02*
X103593400Y-51509500D01*
X105498400Y-70559500D02*
X119468400Y-70559500D01*
D13*
X107988400Y-49604500D02*
X107992128Y-48594228D01*
X108492128Y-48094500D02*
X116487400Y-48094500D01*
X116987400Y-48594500D02*
X116987400Y-49604500D01*
D12*
X119468400Y-49604500D02*
X105498400Y-49604500D01*
X121373400Y-68654500D02*
X121373400Y-51509500D01*
X103593400Y-51505500D02*
G75*
G02*
X105498400Y-49600500I1905001J-1D01*
G01*
X105498400Y-70559500D02*
G75*
G02*
X103593400Y-68654500I1J1905001D01*
G01*
D13*
X107992128Y-48594228D02*
G75*
G02*
X108492128Y-48094501I500018J-291D01*
G01*
X116487400Y-48094500D02*
G75*
G02*
X116987400Y-48594500I0J-500000D01*
G01*
D12*
X119468400Y-49604500D02*
G75*
G02*
X121373400Y-51509500I0J-1905000D01*
G01*
X121373400Y-68654500D02*
G75*
G02*
X119468400Y-70559500I-1905000J0D01*
G01*
D14*
X103635400Y-50020500D02*
G75*
G02*
X103131400Y-50020500I-252000J0D01*
G01*
X103131400Y-50020500D02*
G75*
G02*
X103635400Y-50020500I252000J0D01*
G01*
X104909400Y-50737500D02*
G75*
G02*
X104405400Y-50737500I-252000J0D01*
G01*
X104405400Y-50737500D02*
G75*
G02*
X104909400Y-50737500I252000J0D01*
G01*
%TD*%
M02*
