%TF.GenerationSoftware,KiCad,Pcbnew,9.0.1*%
%TF.CreationDate,2026-05-11T22:00:57+02:00*%
%TF.ProjectId,joy_bsa,6a6f795f-6273-4612-9e6b-696361645f70,rev?*%
%TF.SameCoordinates,Original*%
%TF.FileFunction,Legend,Bot*%
%TF.FilePolarity,Positive*%
%FSLAX46Y46*%
G04 Gerber Fmt 4.6, Leading zero omitted, Abs format (unit mm)*
G04 Created by KiCad (PCBNEW 9.0.1) date 2026-05-11 22:00:57*
%MOMM*%
%LPD*%
G01*
G04 APERTURE LIST*
%ADD10C,0.106680*%
%ADD11C,0.150000*%
%ADD12C,0.120000*%
G04 APERTURE END LIST*
D10*
X119121016Y-81398711D02*
X119493549Y-81398711D01*
X119493549Y-81398711D02*
X119493549Y-80616391D01*
X118562215Y-81361458D02*
X118636722Y-81398711D01*
X118636722Y-81398711D02*
X118785735Y-81398711D01*
X118785735Y-81398711D02*
X118860242Y-81361458D01*
X118860242Y-81361458D02*
X118897495Y-81286951D01*
X118897495Y-81286951D02*
X118897495Y-80988924D01*
X118897495Y-80988924D02*
X118860242Y-80914418D01*
X118860242Y-80914418D02*
X118785735Y-80877164D01*
X118785735Y-80877164D02*
X118636722Y-80877164D01*
X118636722Y-80877164D02*
X118562215Y-80914418D01*
X118562215Y-80914418D02*
X118524962Y-80988924D01*
X118524962Y-80988924D02*
X118524962Y-81063431D01*
X118524962Y-81063431D02*
X118897495Y-81137938D01*
X117854402Y-81398711D02*
X117854402Y-80616391D01*
X117854402Y-81361458D02*
X117928909Y-81398711D01*
X117928909Y-81398711D02*
X118077922Y-81398711D01*
X118077922Y-81398711D02*
X118152429Y-81361458D01*
X118152429Y-81361458D02*
X118189682Y-81324204D01*
X118189682Y-81324204D02*
X118226935Y-81249698D01*
X118226935Y-81249698D02*
X118226935Y-81026178D01*
X118226935Y-81026178D02*
X118189682Y-80951671D01*
X118189682Y-80951671D02*
X118152429Y-80914418D01*
X118152429Y-80914418D02*
X118077922Y-80877164D01*
X118077922Y-80877164D02*
X117928909Y-80877164D01*
X117928909Y-80877164D02*
X117854402Y-80914418D01*
X117072082Y-81398711D02*
X117519122Y-81398711D01*
X117295602Y-81398711D02*
X117295602Y-80616391D01*
X117295602Y-80616391D02*
X117370109Y-80728151D01*
X117370109Y-80728151D02*
X117444616Y-80802658D01*
X117444616Y-80802658D02*
X117519122Y-80839911D01*
X111296509Y-81398711D02*
X111557282Y-81026178D01*
X111743549Y-81398711D02*
X111743549Y-80616391D01*
X111743549Y-80616391D02*
X111445522Y-80616391D01*
X111445522Y-80616391D02*
X111371016Y-80653644D01*
X111371016Y-80653644D02*
X111333762Y-80690898D01*
X111333762Y-80690898D02*
X111296509Y-80765404D01*
X111296509Y-80765404D02*
X111296509Y-80877164D01*
X111296509Y-80877164D02*
X111333762Y-80951671D01*
X111333762Y-80951671D02*
X111371016Y-80988924D01*
X111371016Y-80988924D02*
X111445522Y-81026178D01*
X111445522Y-81026178D02*
X111743549Y-81026178D01*
X110663202Y-81361458D02*
X110737709Y-81398711D01*
X110737709Y-81398711D02*
X110886722Y-81398711D01*
X110886722Y-81398711D02*
X110961229Y-81361458D01*
X110961229Y-81361458D02*
X110998482Y-81286951D01*
X110998482Y-81286951D02*
X110998482Y-80988924D01*
X110998482Y-80988924D02*
X110961229Y-80914418D01*
X110961229Y-80914418D02*
X110886722Y-80877164D01*
X110886722Y-80877164D02*
X110737709Y-80877164D01*
X110737709Y-80877164D02*
X110663202Y-80914418D01*
X110663202Y-80914418D02*
X110625949Y-80988924D01*
X110625949Y-80988924D02*
X110625949Y-81063431D01*
X110625949Y-81063431D02*
X110998482Y-81137938D01*
X110365176Y-80877164D02*
X109955389Y-80877164D01*
X109955389Y-80877164D02*
X110365176Y-81398711D01*
X110365176Y-81398711D02*
X109955389Y-81398711D01*
X109247575Y-81398711D02*
X109694615Y-81398711D01*
X109471095Y-81398711D02*
X109471095Y-80616391D01*
X109471095Y-80616391D02*
X109545602Y-80728151D01*
X109545602Y-80728151D02*
X109620109Y-80802658D01*
X109620109Y-80802658D02*
X109694615Y-80839911D01*
X112583762Y-72903644D02*
X112658269Y-72866391D01*
X112658269Y-72866391D02*
X112770029Y-72866391D01*
X112770029Y-72866391D02*
X112881789Y-72903644D01*
X112881789Y-72903644D02*
X112956296Y-72978151D01*
X112956296Y-72978151D02*
X112993549Y-73052658D01*
X112993549Y-73052658D02*
X113030802Y-73201671D01*
X113030802Y-73201671D02*
X113030802Y-73313431D01*
X113030802Y-73313431D02*
X112993549Y-73462444D01*
X112993549Y-73462444D02*
X112956296Y-73536951D01*
X112956296Y-73536951D02*
X112881789Y-73611458D01*
X112881789Y-73611458D02*
X112770029Y-73648711D01*
X112770029Y-73648711D02*
X112695522Y-73648711D01*
X112695522Y-73648711D02*
X112583762Y-73611458D01*
X112583762Y-73611458D02*
X112546509Y-73574204D01*
X112546509Y-73574204D02*
X112546509Y-73313431D01*
X112546509Y-73313431D02*
X112695522Y-73313431D01*
X112211229Y-73648711D02*
X112211229Y-72866391D01*
X112211229Y-72866391D02*
X111764189Y-73648711D01*
X111764189Y-73648711D02*
X111764189Y-72866391D01*
X111391656Y-73648711D02*
X111391656Y-72866391D01*
X111391656Y-72866391D02*
X111205389Y-72866391D01*
X111205389Y-72866391D02*
X111093629Y-72903644D01*
X111093629Y-72903644D02*
X111019123Y-72978151D01*
X111019123Y-72978151D02*
X110981869Y-73052658D01*
X110981869Y-73052658D02*
X110944616Y-73201671D01*
X110944616Y-73201671D02*
X110944616Y-73313431D01*
X110944616Y-73313431D02*
X110981869Y-73462444D01*
X110981869Y-73462444D02*
X111019123Y-73536951D01*
X111019123Y-73536951D02*
X111093629Y-73611458D01*
X111093629Y-73611458D02*
X111205389Y-73648711D01*
X111205389Y-73648711D02*
X111391656Y-73648711D01*
X115371016Y-81398711D02*
X115743549Y-81398711D01*
X115743549Y-81398711D02*
X115743549Y-80616391D01*
X114812215Y-81361458D02*
X114886722Y-81398711D01*
X114886722Y-81398711D02*
X115035735Y-81398711D01*
X115035735Y-81398711D02*
X115110242Y-81361458D01*
X115110242Y-81361458D02*
X115147495Y-81286951D01*
X115147495Y-81286951D02*
X115147495Y-80988924D01*
X115147495Y-80988924D02*
X115110242Y-80914418D01*
X115110242Y-80914418D02*
X115035735Y-80877164D01*
X115035735Y-80877164D02*
X114886722Y-80877164D01*
X114886722Y-80877164D02*
X114812215Y-80914418D01*
X114812215Y-80914418D02*
X114774962Y-80988924D01*
X114774962Y-80988924D02*
X114774962Y-81063431D01*
X114774962Y-81063431D02*
X115147495Y-81137938D01*
X114104402Y-81398711D02*
X114104402Y-80616391D01*
X114104402Y-81361458D02*
X114178909Y-81398711D01*
X114178909Y-81398711D02*
X114327922Y-81398711D01*
X114327922Y-81398711D02*
X114402429Y-81361458D01*
X114402429Y-81361458D02*
X114439682Y-81324204D01*
X114439682Y-81324204D02*
X114476935Y-81249698D01*
X114476935Y-81249698D02*
X114476935Y-81026178D01*
X114476935Y-81026178D02*
X114439682Y-80951671D01*
X114439682Y-80951671D02*
X114402429Y-80914418D01*
X114402429Y-80914418D02*
X114327922Y-80877164D01*
X114327922Y-80877164D02*
X114178909Y-80877164D01*
X114178909Y-80877164D02*
X114104402Y-80914418D01*
X113769122Y-80690898D02*
X113731869Y-80653644D01*
X113731869Y-80653644D02*
X113657362Y-80616391D01*
X113657362Y-80616391D02*
X113471096Y-80616391D01*
X113471096Y-80616391D02*
X113396589Y-80653644D01*
X113396589Y-80653644D02*
X113359336Y-80690898D01*
X113359336Y-80690898D02*
X113322082Y-80765404D01*
X113322082Y-80765404D02*
X113322082Y-80839911D01*
X113322082Y-80839911D02*
X113359336Y-80951671D01*
X113359336Y-80951671D02*
X113806376Y-81398711D01*
X113806376Y-81398711D02*
X113322082Y-81398711D01*
X107046509Y-81398711D02*
X107307282Y-81026178D01*
X107493549Y-81398711D02*
X107493549Y-80616391D01*
X107493549Y-80616391D02*
X107195522Y-80616391D01*
X107195522Y-80616391D02*
X107121016Y-80653644D01*
X107121016Y-80653644D02*
X107083762Y-80690898D01*
X107083762Y-80690898D02*
X107046509Y-80765404D01*
X107046509Y-80765404D02*
X107046509Y-80877164D01*
X107046509Y-80877164D02*
X107083762Y-80951671D01*
X107083762Y-80951671D02*
X107121016Y-80988924D01*
X107121016Y-80988924D02*
X107195522Y-81026178D01*
X107195522Y-81026178D02*
X107493549Y-81026178D01*
X106413202Y-81361458D02*
X106487709Y-81398711D01*
X106487709Y-81398711D02*
X106636722Y-81398711D01*
X106636722Y-81398711D02*
X106711229Y-81361458D01*
X106711229Y-81361458D02*
X106748482Y-81286951D01*
X106748482Y-81286951D02*
X106748482Y-80988924D01*
X106748482Y-80988924D02*
X106711229Y-80914418D01*
X106711229Y-80914418D02*
X106636722Y-80877164D01*
X106636722Y-80877164D02*
X106487709Y-80877164D01*
X106487709Y-80877164D02*
X106413202Y-80914418D01*
X106413202Y-80914418D02*
X106375949Y-80988924D01*
X106375949Y-80988924D02*
X106375949Y-81063431D01*
X106375949Y-81063431D02*
X106748482Y-81137938D01*
X106115176Y-80877164D02*
X105705389Y-80877164D01*
X105705389Y-80877164D02*
X106115176Y-81398711D01*
X106115176Y-81398711D02*
X105705389Y-81398711D01*
X105444615Y-80690898D02*
X105407362Y-80653644D01*
X105407362Y-80653644D02*
X105332855Y-80616391D01*
X105332855Y-80616391D02*
X105146589Y-80616391D01*
X105146589Y-80616391D02*
X105072082Y-80653644D01*
X105072082Y-80653644D02*
X105034829Y-80690898D01*
X105034829Y-80690898D02*
X104997575Y-80765404D01*
X104997575Y-80765404D02*
X104997575Y-80839911D01*
X104997575Y-80839911D02*
X105034829Y-80951671D01*
X105034829Y-80951671D02*
X105481869Y-81398711D01*
X105481869Y-81398711D02*
X104997575Y-81398711D01*
D11*
X115095237Y-51200057D02*
X115047618Y-51152438D01*
X115047618Y-51152438D02*
X114952380Y-51104819D01*
X114952380Y-51104819D02*
X114714285Y-51104819D01*
X114714285Y-51104819D02*
X114619047Y-51152438D01*
X114619047Y-51152438D02*
X114571428Y-51200057D01*
X114571428Y-51200057D02*
X114523809Y-51295295D01*
X114523809Y-51295295D02*
X114523809Y-51390533D01*
X114523809Y-51390533D02*
X114571428Y-51533390D01*
X114571428Y-51533390D02*
X115142856Y-52104819D01*
X115142856Y-52104819D02*
X114523809Y-52104819D01*
X113619047Y-51104819D02*
X114095237Y-51104819D01*
X114095237Y-51104819D02*
X114142856Y-51581009D01*
X114142856Y-51581009D02*
X114095237Y-51533390D01*
X114095237Y-51533390D02*
X113999999Y-51485771D01*
X113999999Y-51485771D02*
X113761904Y-51485771D01*
X113761904Y-51485771D02*
X113666666Y-51533390D01*
X113666666Y-51533390D02*
X113619047Y-51581009D01*
X113619047Y-51581009D02*
X113571428Y-51676247D01*
X113571428Y-51676247D02*
X113571428Y-51914342D01*
X113571428Y-51914342D02*
X113619047Y-52009580D01*
X113619047Y-52009580D02*
X113666666Y-52057200D01*
X113666666Y-52057200D02*
X113761904Y-52104819D01*
X113761904Y-52104819D02*
X113999999Y-52104819D01*
X113999999Y-52104819D02*
X114095237Y-52057200D01*
X114095237Y-52057200D02*
X114142856Y-52009580D01*
X112666666Y-52104819D02*
X113142856Y-52104819D01*
X113142856Y-52104819D02*
X113142856Y-51104819D01*
X111809523Y-52104819D02*
X112380951Y-52104819D01*
X112095237Y-52104819D02*
X112095237Y-51104819D01*
X112095237Y-51104819D02*
X112190475Y-51247676D01*
X112190475Y-51247676D02*
X112285713Y-51342914D01*
X112285713Y-51342914D02*
X112380951Y-51390533D01*
X111428570Y-51200057D02*
X111380951Y-51152438D01*
X111380951Y-51152438D02*
X111285713Y-51104819D01*
X111285713Y-51104819D02*
X111047618Y-51104819D01*
X111047618Y-51104819D02*
X110952380Y-51152438D01*
X110952380Y-51152438D02*
X110904761Y-51200057D01*
X110904761Y-51200057D02*
X110857142Y-51295295D01*
X110857142Y-51295295D02*
X110857142Y-51390533D01*
X110857142Y-51390533D02*
X110904761Y-51533390D01*
X110904761Y-51533390D02*
X111476189Y-52104819D01*
X111476189Y-52104819D02*
X110857142Y-52104819D01*
X110285713Y-51533390D02*
X110380951Y-51485771D01*
X110380951Y-51485771D02*
X110428570Y-51438152D01*
X110428570Y-51438152D02*
X110476189Y-51342914D01*
X110476189Y-51342914D02*
X110476189Y-51295295D01*
X110476189Y-51295295D02*
X110428570Y-51200057D01*
X110428570Y-51200057D02*
X110380951Y-51152438D01*
X110380951Y-51152438D02*
X110285713Y-51104819D01*
X110285713Y-51104819D02*
X110095237Y-51104819D01*
X110095237Y-51104819D02*
X109999999Y-51152438D01*
X109999999Y-51152438D02*
X109952380Y-51200057D01*
X109952380Y-51200057D02*
X109904761Y-51295295D01*
X109904761Y-51295295D02*
X109904761Y-51342914D01*
X109904761Y-51342914D02*
X109952380Y-51438152D01*
X109952380Y-51438152D02*
X109999999Y-51485771D01*
X109999999Y-51485771D02*
X110095237Y-51533390D01*
X110095237Y-51533390D02*
X110285713Y-51533390D01*
X110285713Y-51533390D02*
X110380951Y-51581009D01*
X110380951Y-51581009D02*
X110428570Y-51628628D01*
X110428570Y-51628628D02*
X110476189Y-51723866D01*
X110476189Y-51723866D02*
X110476189Y-51914342D01*
X110476189Y-51914342D02*
X110428570Y-52009580D01*
X110428570Y-52009580D02*
X110380951Y-52057200D01*
X110380951Y-52057200D02*
X110285713Y-52104819D01*
X110285713Y-52104819D02*
X110095237Y-52104819D01*
X110095237Y-52104819D02*
X109999999Y-52057200D01*
X109999999Y-52057200D02*
X109952380Y-52009580D01*
X109952380Y-52009580D02*
X109904761Y-51914342D01*
X109904761Y-51914342D02*
X109904761Y-51723866D01*
X109904761Y-51723866D02*
X109952380Y-51628628D01*
X109952380Y-51628628D02*
X109999999Y-51581009D01*
X109999999Y-51581009D02*
X110095237Y-51533390D01*
X112954819Y-61059523D02*
X112954819Y-60488095D01*
X112954819Y-60773809D02*
X111954819Y-60773809D01*
X111954819Y-60773809D02*
X112097676Y-60678571D01*
X112097676Y-60678571D02*
X112192914Y-60583333D01*
X112192914Y-60583333D02*
X112240533Y-60488095D01*
X111954819Y-61678571D02*
X111954819Y-61773809D01*
X111954819Y-61773809D02*
X112002438Y-61869047D01*
X112002438Y-61869047D02*
X112050057Y-61916666D01*
X112050057Y-61916666D02*
X112145295Y-61964285D01*
X112145295Y-61964285D02*
X112335771Y-62011904D01*
X112335771Y-62011904D02*
X112573866Y-62011904D01*
X112573866Y-62011904D02*
X112764342Y-61964285D01*
X112764342Y-61964285D02*
X112859580Y-61916666D01*
X112859580Y-61916666D02*
X112907200Y-61869047D01*
X112907200Y-61869047D02*
X112954819Y-61773809D01*
X112954819Y-61773809D02*
X112954819Y-61678571D01*
X112954819Y-61678571D02*
X112907200Y-61583333D01*
X112907200Y-61583333D02*
X112859580Y-61535714D01*
X112859580Y-61535714D02*
X112764342Y-61488095D01*
X112764342Y-61488095D02*
X112573866Y-61440476D01*
X112573866Y-61440476D02*
X112335771Y-61440476D01*
X112335771Y-61440476D02*
X112145295Y-61488095D01*
X112145295Y-61488095D02*
X112050057Y-61535714D01*
X112050057Y-61535714D02*
X112002438Y-61583333D01*
X112002438Y-61583333D02*
X111954819Y-61678571D01*
X112954819Y-62440476D02*
X111954819Y-62440476D01*
X112954819Y-63011904D02*
X112383390Y-62583333D01*
X111954819Y-63011904D02*
X112526247Y-62440476D01*
D12*
%TO.C,REF\u002A\u002A*%
X113515000Y-61522936D02*
X113515000Y-61977064D01*
X114985000Y-61522936D02*
X114985000Y-61977064D01*
%TO.C,25L128*%
X109740000Y-52650000D02*
X109740000Y-53920000D01*
X109740000Y-59120000D02*
X109740000Y-57850000D01*
X115260000Y-52650000D02*
X109740000Y-52650000D01*
X115260000Y-52650000D02*
X115260000Y-53300000D01*
X115260000Y-59120000D02*
X109740000Y-59120000D01*
X115260000Y-59120000D02*
X115260000Y-57850000D01*
X117110000Y-53300000D02*
X115260000Y-53300000D01*
%TO.C,10K*%
X110015000Y-61522936D02*
X110015000Y-61977064D01*
X111485000Y-61522936D02*
X111485000Y-61977064D01*
%TD*%
M02*
