%TF.GenerationSoftware,KiCad,Pcbnew,9.0.1*%
%TF.CreationDate,2026-05-11T22:00:57+02:00*%
%TF.ProjectId,joy_bsa,6a6f795f-6273-4612-9e6b-696361645f70,rev?*%
%TF.SameCoordinates,Original*%
%TF.FileFunction,Copper,L1,Top*%
%TF.FilePolarity,Positive*%
%FSLAX46Y46*%
G04 Gerber Fmt 4.6, Leading zero omitted, Abs format (unit mm)*
G04 Created by KiCad (PCBNEW 9.0.1) date 2026-05-11 22:00:57*
%MOMM*%
%LPD*%
G01*
G04 APERTURE LIST*
G04 Aperture macros list*
%AMRoundRect*
0 Rectangle with rounded corners*
0 $1 Rounding radius*
0 $2 $3 $4 $5 $6 $7 $8 $9 X,Y pos of 4 corners*
0 Add a 4 corners polygon primitive as box body*
4,1,4,$2,$3,$4,$5,$6,$7,$8,$9,$2,$3,0*
0 Add four circle primitives for the rounded corners*
1,1,$1+$1,$2,$3*
1,1,$1+$1,$4,$5*
1,1,$1+$1,$6,$7*
1,1,$1+$1,$8,$9*
0 Add four rect primitives between the rounded corners*
20,1,$1+$1,$2,$3,$4,$5,0*
20,1,$1+$1,$4,$5,$6,$7,0*
20,1,$1+$1,$6,$7,$8,$9,0*
20,1,$1+$1,$8,$9,$2,$3,0*%
G04 Aperture macros list end*
%TA.AperFunction,SMDPad,CuDef*%
%ADD10RoundRect,0.500000X-0.875000X-0.500000X0.875000X-0.500000X0.875000X0.500000X-0.875000X0.500000X0*%
%TD*%
%TA.AperFunction,SMDPad,CuDef*%
%ADD11RoundRect,0.275000X-0.275000X0.975000X-0.275000X-0.975000X0.275000X-0.975000X0.275000X0.975000X0*%
%TD*%
%TA.AperFunction,SMDPad,CuDef*%
%ADD12C,1.700000*%
%TD*%
%TA.AperFunction,ViaPad*%
%ADD13C,3.000000*%
%TD*%
%TA.AperFunction,ViaPad*%
%ADD14C,0.600000*%
%TD*%
%TA.AperFunction,ViaPad*%
%ADD15C,1.000000*%
%TD*%
%TA.AperFunction,Conductor*%
%ADD16C,0.300000*%
%TD*%
G04 APERTURE END LIST*
D10*
%TO.P,REF\u002A\u002A,1*%
%TO.N,N/C*%
X104428400Y-52521500D03*
%TO.P,REF\u002A\u002A,2*%
X104428400Y-55061500D03*
%TO.P,REF\u002A\u002A,3*%
X104428400Y-57601500D03*
%TO.P,REF\u002A\u002A,4*%
X104428400Y-60141500D03*
%TO.P,REF\u002A\u002A,5*%
X104428400Y-62681500D03*
%TO.P,REF\u002A\u002A,6*%
X104428400Y-65221500D03*
%TO.P,REF\u002A\u002A,7*%
X104428400Y-67761500D03*
%TO.P,REF\u002A\u002A,8*%
X120593400Y-67761500D03*
%TO.P,REF\u002A\u002A,9*%
X120593400Y-65221500D03*
%TO.P,REF\u002A\u002A,10*%
X120593400Y-62681500D03*
%TO.P,REF\u002A\u002A,11*%
X120593400Y-60141500D03*
%TO.P,REF\u002A\u002A,12*%
X120593400Y-57601500D03*
%TO.P,REF\u002A\u002A,13*%
X120593400Y-55061500D03*
%TO.P,REF\u002A\u002A,14*%
X120593400Y-52521500D03*
D11*
%TO.P,REF\u002A\u002A,15*%
X110702000Y-65673200D03*
%TO.P,REF\u002A\u002A,16*%
X113242000Y-65673200D03*
D12*
%TO.P,REF\u002A\u002A,17*%
X111210000Y-51500000D03*
%TO.P,REF\u002A\u002A,18*%
X113750000Y-51500000D03*
%TO.P,REF\u002A\u002A,19*%
X111210000Y-54040000D03*
%TO.P,REF\u002A\u002A,20*%
X113750000Y-54040000D03*
%TO.P,REF\u002A\u002A,21*%
X111210000Y-56580000D03*
%TO.P,REF\u002A\u002A,22*%
X113750000Y-56580000D03*
%TO.P,REF\u002A\u002A,23*%
X111210000Y-59120000D03*
%TO.P,REF\u002A\u002A,24*%
X113657400Y-59063200D03*
%TD*%
D13*
%TO.N,*%
X110702000Y-65673200D03*
D14*
X104428400Y-52521500D03*
X104428400Y-67761500D03*
X120593400Y-55061500D03*
X120593400Y-60141500D03*
X120593400Y-62681500D03*
X104428400Y-62681500D03*
X104428400Y-60141500D03*
D15*
X131120000Y-80750000D03*
X133660000Y-80750000D03*
X123500000Y-80750000D03*
D14*
X120593400Y-67761500D03*
D15*
X136200000Y-80750000D03*
X138740000Y-80750000D03*
D14*
X120593400Y-57601500D03*
D15*
X128580000Y-80750000D03*
D14*
X120593400Y-65221500D03*
D15*
X126040000Y-80750000D03*
%TD*%
D16*
%TO.N,*%
X107750000Y-56750000D02*
X107750000Y-75250000D01*
X138500000Y-82500000D02*
X139750000Y-81250000D01*
X124250000Y-66000000D02*
X123000000Y-64750000D01*
X107750000Y-75250000D02*
X111250000Y-78750000D01*
X107250000Y-58750000D02*
X107250000Y-75500000D01*
X139750000Y-67250000D02*
X138500000Y-66000000D01*
X134750000Y-80250000D02*
X134750000Y-81000000D01*
X111000000Y-79250000D02*
X133750000Y-79250000D01*
X123500000Y-80750000D02*
X125250000Y-82500000D01*
X106750000Y-75750000D02*
X106750000Y-66000000D01*
X133660000Y-80750000D02*
X132660000Y-79750000D01*
X138500000Y-66000000D02*
X124250000Y-66000000D01*
X134200000Y-78750000D02*
X136200000Y-80750000D01*
X104428400Y-55061500D02*
X106061500Y-55061500D01*
X133750000Y-79250000D02*
X134750000Y-80250000D01*
X111250000Y-78750000D02*
X134200000Y-78750000D01*
X123000000Y-64750000D02*
X123000000Y-58250000D01*
X122351500Y-57601500D02*
X120593400Y-57601500D01*
X110750000Y-79750000D02*
X106750000Y-75750000D01*
X137490000Y-82000000D02*
X138740000Y-80750000D01*
X139750000Y-81250000D02*
X139750000Y-67250000D01*
X125250000Y-82500000D02*
X138500000Y-82500000D01*
X105971500Y-65221500D02*
X104428400Y-65221500D01*
X135750000Y-82000000D02*
X137490000Y-82000000D01*
X132660000Y-79750000D02*
X110750000Y-79750000D01*
X138740000Y-80750000D02*
X138740000Y-80740000D01*
X104428400Y-57601500D02*
X106101500Y-57601500D01*
X106061500Y-55061500D02*
X107750000Y-56750000D01*
X107250000Y-75500000D02*
X111000000Y-79250000D01*
X123000000Y-58250000D02*
X122351500Y-57601500D01*
X134750000Y-81000000D02*
X135750000Y-82000000D01*
X106750000Y-66000000D02*
X105971500Y-65221500D01*
X106101500Y-57601500D02*
X107250000Y-58750000D01*
%TD*%
M02*
