%TF.GenerationSoftware,KiCad,Pcbnew,9.0.1*%
%TF.CreationDate,2026-05-11T22:00:57+02:00*%
%TF.ProjectId,joy_bsa,6a6f795f-6273-4612-9e6b-696361645f70,rev?*%
%TF.SameCoordinates,Original*%
%TF.FileFunction,Soldermask,Bot*%
%TF.FilePolarity,Negative*%
%FSLAX46Y46*%
G04 Gerber Fmt 4.6, Leading zero omitted, Abs format (unit mm)*
G04 Created by KiCad (PCBNEW 9.0.1) date 2026-05-11 22:00:57*
%MOMM*%
%LPD*%
G01*
G04 APERTURE LIST*
G04 Aperture macros list*
%AMRoundRect*
0 Rectangle with rounded corners*
0 $1 Rounding radius*
0 $2 $3 $4 $5 $6 $7 $8 $9 X,Y pos of 4 corners*
0 Add a 4 corners polygon primitive as box body*
4,1,4,$2,$3,$4,$5,$6,$7,$8,$9,$2,$3,0*
0 Add four circle primitives for the rounded corners*
1,1,$1+$1,$2,$3*
1,1,$1+$1,$4,$5*
1,1,$1+$1,$6,$7*
1,1,$1+$1,$8,$9*
0 Add four rect primitives between the rounded corners*
20,1,$1+$1,$2,$3,$4,$5,0*
20,1,$1+$1,$4,$5,$6,$7,0*
20,1,$1+$1,$6,$7,$8,$9,0*
20,1,$1+$1,$8,$9,$2,$3,0*%
G04 Aperture macros list end*
%ADD10C,0.200000*%
%ADD11RoundRect,0.250000X-0.450000X0.262500X-0.450000X-0.262500X0.450000X-0.262500X0.450000X0.262500X0*%
%ADD12RoundRect,0.190000X0.610000X0.190000X-0.610000X0.190000X-0.610000X-0.190000X0.610000X-0.190000X0*%
%ADD13C,3.000000*%
%ADD14C,1.000000*%
G04 APERTURE END LIST*
D10*
X116250000Y-72500000D02*
X108250000Y-72500000D01*
X108250000Y-70750000D01*
X116250000Y-70750000D01*
X116250000Y-72500000D01*
G36*
X116250000Y-72500000D02*
G01*
X108250000Y-72500000D01*
X108250000Y-70750000D01*
X116250000Y-70750000D01*
X116250000Y-72500000D01*
G37*
X107000000Y-80000000D02*
X105750000Y-80000000D01*
X105750000Y-77750000D01*
X107000000Y-77750000D01*
X107000000Y-80000000D01*
G36*
X107000000Y-80000000D02*
G01*
X105750000Y-80000000D01*
X105750000Y-77750000D01*
X107000000Y-77750000D01*
X107000000Y-80000000D01*
G37*
X115250000Y-80000000D02*
X114000000Y-80000000D01*
X114000000Y-77750000D01*
X115250000Y-77750000D01*
X115250000Y-80000000D01*
G36*
X115250000Y-80000000D02*
G01*
X114000000Y-80000000D01*
X114000000Y-77750000D01*
X115250000Y-77750000D01*
X115250000Y-80000000D01*
G37*
X119000000Y-80000000D02*
X117750000Y-80000000D01*
X117750000Y-77750000D01*
X119000000Y-77750000D01*
X119000000Y-80000000D01*
G36*
X119000000Y-80000000D02*
G01*
X117750000Y-80000000D01*
X117750000Y-77750000D01*
X119000000Y-77750000D01*
X119000000Y-80000000D01*
G37*
X111250000Y-80000000D02*
X110000000Y-80000000D01*
X110000000Y-77750000D01*
X111250000Y-77750000D01*
X111250000Y-80000000D01*
G36*
X111250000Y-80000000D02*
G01*
X110000000Y-80000000D01*
X110000000Y-77750000D01*
X111250000Y-77750000D01*
X111250000Y-80000000D01*
G37*
D11*
%TO.C,REF\u002A\u002A*%
X114250000Y-60837500D03*
X114250000Y-62662500D03*
%TD*%
D12*
%TO.C,25L128*%
X116310000Y-53980000D03*
X116310000Y-55250000D03*
X116310000Y-56520000D03*
X116310000Y-57790000D03*
X108690000Y-57790000D03*
X108690000Y-56520000D03*
X108690000Y-55250000D03*
X108690000Y-53980000D03*
%TD*%
D11*
%TO.C,10K*%
X110750000Y-60837500D03*
X110750000Y-62662500D03*
%TD*%
D13*
X110702000Y-65673200D03*
D14*
X131120000Y-80750000D03*
X133660000Y-80750000D03*
X123500000Y-80750000D03*
X136200000Y-80750000D03*
X138740000Y-80750000D03*
X128580000Y-80750000D03*
X126040000Y-80750000D03*
M02*
